<svg xmlns="http://www.w3.org/2000/svg" xmlns:xlink="http://www.w3.org/1999/xlink" xml:space="preserve" id="Capa_1" x="0" y="0" style="enable-background:new 0 0 996 221" version="1.1" viewBox="0 0 996 221"><style>.st4{clip-path:url(#SVGID_4_);fill:none;stroke:#fff;stroke-width:4}</style><defs><path id="SVGID_1_" d="M-.42.5h996.18v221H-.42z"/></defs><clipPath id="SVGID_2_"><use xlink:href="#SVGID_1_" style="overflow:visible"/></clipPath><g style="clip-path:url(#SVGID_2_)"><defs><path id="SVGID_3_" d="M-.42.5h996.18v221H-.42z"/></defs><clipPath id="SVGID_4_"><use xlink:href="#SVGID_3_" style="overflow:visible"/></clipPath><g style="opacity:.66;clip-path:url(#SVGID_4_)"><defs><path id="SVGID_5_" d="M-9.42-6.5h1014.18v229H-9.42z"/></defs><clipPath id="SVGID_6_"><use xlink:href="#SVGID_5_" style="overflow:visible"/></clipPath><path d="M16.58.5c-9.39 0-17 7.61-17 17v187c0 9.39 7.61 17 17 17h962.18c9.39 0 17-7.61 17-17v-187c0-9.39-7.61-17-17-17H16.58z" style="clip-path:url(#SVGID_6_);fill:#008196"/></g><path d="M673.61 135.27c7.96 0 13.01-3.8 13.01-9.21 0-5.1-3.11-7.72-11.82-9.15-6.35-1.06-8.4-2.43-8.4-5.1 0-2.3 3.11-4.54 7.28-4.54 3.92 0 6.72 1.49 8.09 5.6l4.23-2.49c-1.74-5.1-5.66-7.47-12.32-7.47-7.59 0-12.26 4.29-12.26 9.33 0 5.23 3.23 7.65 12.07 9.27 6.22 1.12 8.15 2.49 8.15 4.79 0 2.55-2.43 4.6-7.53 4.6-4.48 0-8.34-1.68-9.83-5.48l-4.05 2.8c2.36 4.81 7.65 7.05 13.38 7.05m-35.29-28.07c6.28 0 10.08 4.48 10.08 11.88s-3.8 11.89-10.08 11.89c-6.29 0-10.08-4.48-10.08-11.89s3.8-11.88 10.08-11.88m0-4.29c-9.4 0-15.06 6.1-15.06 16.18s5.66 16.18 15.06 16.18 15.06-6.1 15.06-16.18-5.66-16.18-15.06-16.18m-36.52 0c-4.29 0-8.28 1.56-10.45 5.48l-.31-4.85h-4.36v31.11h4.98V118.1c0-7.97 5.1-10.83 9.64-10.83 4.29 0 7.65 2.3 7.65 9.21v18.17h4.98v-19.91c0-8.03-5.47-11.83-12.13-11.83m-41.76 28c-3.55 0-5.66-1.37-5.66-3.98 0-2.93 2.8-4.73 8.28-5.72l6.97-1.31v4.29c0 4.11-4.61 6.72-9.59 6.72m16.93.13c-1.74 0-2.36-.75-2.36-2.24v-15.31c0-7.22-5.16-10.58-12.26-10.58-6.04 0-10.95 2.99-12.57 7.59l3.67 2.68c1.68-3.92 4.79-5.91 8.9-5.91 4.67 0 7.28 2.74 7.28 6.85v1.74l-8.28 1.37c-8.03 1.37-12.14 5.04-12.14 9.71 0 5.6 4.73 8.34 10.58 8.34 3.98 0 8.03-1.68 10.02-4.6.56 3.49 2.55 4.6 5.6 4.6 1.56 0 2.86-.31 3.73-.62l.31-3.92c-.74.17-1.67.3-2.48.3m-48.66-28.13c-3.92 0-8.9 1.87-10.83 6.1-2.05-4.17-6.35-6.1-10.7-6.1-3.86 0-7.72 1.68-9.96 5.48l-.31-4.85h-4.36v31.11h4.98v-16.61c0-7.72 5.1-10.76 9.21-10.76s7.34 2.3 7.34 7.96v19.42h4.98V117.6c0-6.66 4.35-10.33 9.21-10.33 4.11 0 7.34 2.3 7.34 7.96v19.42h4.98v-19.91c0-8.22-5.91-11.83-11.88-11.83m-79.59 32.36c7.96 0 13.01-3.8 13.01-9.21 0-5.1-3.11-7.72-11.82-9.15-6.35-1.06-8.4-2.43-8.4-5.1 0-2.3 3.11-4.54 7.28-4.54 3.92 0 6.72 1.49 8.09 5.6l4.23-2.49c-1.74-5.1-5.66-7.47-12.32-7.47-7.59 0-12.26 4.29-12.26 9.33 0 5.23 3.24 7.65 12.07 9.27 6.22 1.12 8.15 2.49 8.15 4.79 0 2.55-2.43 4.6-7.53 4.6-4.48 0-8.34-1.68-9.83-5.48l-4.04 2.8c2.36 4.81 7.65 7.05 13.37 7.05m-35.28-28.07c6.29 0 10.08 4.48 10.08 11.88s-3.8 11.89-10.08 11.89-10.08-4.48-10.08-11.89 3.79-11.88 10.08-11.88m0-4.29c-9.4 0-15.06 6.1-15.06 16.18s5.66 16.18 15.06 16.18 15.06-6.1 15.06-16.18-5.66-16.18-15.06-16.18m-39.45 28c-6.1 0-9.77-4.6-9.77-11.82 0-7.22 3.67-11.82 9.77-11.82 5.91 0 9.77 4.42 9.77 11.45v.75c0 7.02-3.86 11.44-9.77 11.44m9.77-41.69v19.17c-1.93-3.24-5.66-5.48-10.33-5.48-8.65 0-14.19 6.04-14.19 16.18s5.54 16.18 14.19 16.18c4.91 0 8.84-2.49 10.64-6.04l.31 5.41h4.35V89.22h-4.97zm-75.23 29.37 5.6-14.75 1.8-5.54h.12l1.93 5.72 5.54 14.56h-14.99zm21.15 16.06h5.29l-15.93-41.07h-5.91l-15.99 41.07h5.23l4.36-11.39h18.61l4.34 11.39z" style="clip-path:url(#SVGID_4_);fill:#fff"/><path d="M137.48 155.98s-12.59-14.6-19.19-11.76c-6.6 2.84-2.6 9.33-2.6 9.33s20.59 30.42 23.78 33.26c3.2 2.84 9.99 9.33 20.79 8.52 10.79-.81 19.19-8.11 23.38-16.22 4.2-8.11 10.59-62.06 10.59-62.06s.8-6.49-3.6-7.3c-4.4-.81-6.4 4.06-6.4 4.06l-6.79 25.15 3.2-33.26s.8-6.49-5-7.3c-5.8-.81-6.99 6.9-6.99 6.9l-6.79 34.07.8-40.97s.4-7.71-6.99-7.71c-6 0-5.8 8.52-5.8 8.52l.4 39.75-6.8-36.1s-1.8-4.87-7.79-3.65c-4.2.81-4 7.71-4 7.71l5.8 49.06zM96.35 104.98s12.59-14.6 19.19-11.76c6.6 2.84 2.6 9.33 2.6 9.33s-20.59 30.42-23.78 33.26c-3.2 2.84-9.99 9.33-20.79 8.52s-19.19-8.11-23.38-16.22C45.99 120 39.6 66.05 39.6 66.05s-.8-6.49 3.6-7.3c4.4-.81 6.4 4.06 6.4 4.06l6.79 25.15-3.2-33.26s-.8-6.49 5-7.3c5.8-.81 6.99 6.9 6.99 6.9l6.79 34.07-.8-40.96s-.4-7.71 6.99-7.71c6 0 5.8 8.52 5.8 8.52l-.4 39.75 6.79-36.1s1.8-4.87 7.79-3.65c4.2.81 4 7.71 4 7.71l-5.79 49.05z" class="st4"/></g></svg>