<svg xmlns="http://www.w3.org/2000/svg" xmlns:xlink="http://www.w3.org/1999/xlink" xml:space="preserve" style="enable-background:new 0 0 996 221" viewBox="0 0 996 221"><defs><path id="a" d="M-.18.35h996.43v221H-.18z"/></defs><clipPath id="b"><use xlink:href="#a" style="overflow:visible"/></clipPath><g style="clip-path:url(#b)"><defs><path id="c" d="M-.18.35h996.43v221H-.18z"/></defs><clipPath id="d"><use xlink:href="#c" style="overflow:visible"/></clipPath><g style="opacity:.66;clip-path:url(#d)"><defs><path id="e" d="M-9.18-6.65h1014.43v229H-9.18z"/></defs><clipPath id="f"><use xlink:href="#e" style="overflow:visible"/></clipPath><path d="M16.82.35c-9.39 0-17 7.61-17 17v187c0 9.39 7.61 17 17 17h962.43c9.39 0 17-7.61 17-17v-187c0-9.39-7.61-17-17-17H16.82z" style="clip-path:url(#f);fill:#008196"/></g><path d="M667.88 107.06c6.28 0 10.08 4.48 10.08 11.88s-3.8 11.89-10.08 11.89-10.08-4.48-10.08-11.89 3.8-11.88 10.08-11.88m0-4.3c-9.4 0-15.06 6.1-15.06 16.18s5.66 16.18 15.06 16.18 15.06-6.1 15.06-16.18-5.66-16.18-15.06-16.18m-36.52 0c-4.29 0-8.28 1.56-10.45 5.48l-.31-4.85h-4.36v31.11h4.98v-16.55c0-7.97 5.1-10.83 9.65-10.83 4.29 0 7.65 2.3 7.65 9.21v18.17h4.98v-19.91c-.01-8.03-5.48-11.83-12.14-11.83m-41.76 28c-3.55 0-5.66-1.37-5.66-3.98 0-2.93 2.8-4.73 8.28-5.72l6.97-1.31v4.29c0 4.11-4.61 6.72-9.59 6.72m16.93.13c-1.74 0-2.36-.75-2.36-2.24v-15.31c0-7.22-5.17-10.58-12.26-10.58-6.04 0-10.95 2.99-12.57 7.59l3.67 2.68c1.68-3.92 4.79-5.91 8.9-5.91 4.67 0 7.28 2.74 7.28 6.85v1.74l-8.28 1.37c-8.03 1.37-12.14 5.04-12.14 9.71 0 5.6 4.73 8.34 10.58 8.34 3.98 0 8.03-1.68 10.02-4.6.56 3.49 2.55 4.6 5.6 4.6 1.56 0 2.86-.31 3.73-.62l.31-3.92c-.74.17-1.67.3-2.48.3m-48.66-28.13c-3.92 0-8.9 1.87-10.83 6.1-2.05-4.17-6.35-6.1-10.7-6.1-3.86 0-7.72 1.68-9.96 5.48l-.31-4.85h-4.36v31.11h4.98v-16.61c0-7.72 5.1-10.76 9.21-10.76s7.34 2.3 7.34 7.96v19.42h4.98v-17.05c0-6.66 4.36-10.33 9.21-10.33 4.11 0 7.34 2.3 7.34 7.96v19.42h4.98V114.6c0-8.23-5.91-11.84-11.88-11.84m-82.58 28c-3.55 0-5.66-1.37-5.66-3.98 0-2.93 2.8-4.73 8.28-5.72l6.97-1.31v4.29c0 4.11-4.61 6.72-9.59 6.72m16.93.13c-1.74 0-2.36-.75-2.36-2.24v-15.31c0-7.22-5.17-10.58-12.26-10.58-6.04 0-10.95 2.99-12.57 7.59l3.67 2.68c1.68-3.92 4.79-5.91 8.9-5.91 4.67 0 7.28 2.74 7.28 6.85v1.74l-8.28 1.37c-8.03 1.37-12.13 5.04-12.13 9.71 0 5.6 4.73 8.34 10.58 8.34 3.98 0 8.03-1.68 10.02-4.6.56 3.49 2.55 4.6 5.6 4.6 1.55 0 2.86-.31 3.73-.62l.31-3.92c-.75.17-1.68.3-2.49.3m-48.91-28.13c-4.29 0-8.28 1.56-10.45 5.48l-.31-4.85h-4.36v31.11h4.98v-16.55c0-7.97 5.1-10.83 9.65-10.83 4.29 0 7.65 2.3 7.65 9.21v18.17h4.98v-19.91c0-8.03-5.48-11.83-12.14-11.83m-31.67.62v16.93c0 7.34-4.67 10.45-9.96 10.45-4.48 0-7.34-1.93-7.34-8.34v-19.04h-4.98v20.35c0 8.21 5.29 11.39 11.45 11.39 4.98 0 8.96-1.62 11.14-5.35l.31 4.73h4.36v-31.11h-4.98zm-74.55 15.06 5.6-14.75 1.8-5.54h.12l1.93 5.72 5.54 14.56h-14.99zm21.16 16.06h5.29l-15.93-41.07h-5.91l-16 41.07h5.23l4.36-11.39h18.61l4.35 11.39z" style="clip-path:url(#d);fill:#fff"/><path d="M104.25 119.65s-12.59-14.6-19.19-11.76c-6.6 2.84-2.6 9.33-2.6 9.33s20.59 30.42 23.78 33.26c3.2 2.84 9.99 9.33 20.79 8.52 10.79-.81 19.19-8.11 23.38-16.22 4.2-8.11 10.59-62.06 10.59-62.06s.8-6.49-3.6-7.3-6.4 4.06-6.4 4.06l-6.79 25.15 3.2-33.26s.8-6.49-5-7.3c-5.8-.81-6.99 6.9-6.99 6.9l-6.79 34.07.8-40.97s.4-7.71-6.99-7.71c-6 0-5.8 8.52-5.8 8.52l.4 39.75-6.8-36.1s-1.8-4.87-7.79-3.65c-4.2.81-4 7.71-4 7.71l5.8 49.06z" style="clip-path:url(#d);fill:none;stroke:#fff;stroke-width:4"/></g></svg>