<svg xmlns="http://www.w3.org/2000/svg" xmlns:xlink="http://www.w3.org/1999/xlink" xml:space="preserve" id="Capa_1" x="0" y="0" style="enable-background:new 0 0 494 247" version="1.1" viewBox="0 0 494 247"><style>.st0{clip-path:url(#SVGID_2_)}.st4{clip-path:url(#SVGID_4_);fill:#fff}.st6{clip-path:url(#SVGID_2_);fill:none;stroke:#fff;stroke-width:3;stroke-linecap:round;stroke-linejoin:round;stroke-miterlimit:10}</style><defs><path id="SVGID_1_" d="M-.09.32h996.18v247.02H-.09z"/></defs><clipPath id="SVGID_2_"><use xlink:href="#SVGID_1_" style="overflow:visible"/></clipPath><g class="st0"><defs><path id="SVGID_3_" d="M-.09.32h996.18v247.02H-.09z"/></defs><clipPath id="SVGID_4_"><use xlink:href="#SVGID_3_" style="overflow:visible"/></clipPath><g style="opacity:.66;clip-path:url(#SVGID_4_)"><defs><path id="SVGID_5_" d="M-9.09-5.67h1014.18v254H-9.09z"/></defs><clipPath id="SVGID_6_"><use xlink:href="#SVGID_5_" style="overflow:visible"/></clipPath><path d="M16.91 1.33c-9.39 0-17 7.61-17 17v212c0 9.39 7.61 17 17 17h962.18c9.39 0 17-7.61 17-17v-212c0-9.39-7.61-17-17-17H16.91z" style="clip-path:url(#SVGID_6_);fill:#008196"/></g><path d="M496.65.32v247.01" style="clip-path:url(#SVGID_4_);fill:none;stroke:#fff;stroke-width:6"/><path d="M181.01 139.26c7.82-7.99 17.08-13.17 26.93-18.25 10.47-5.4 21.19-10.32 32.21-14.5 10.66-4.05 22.43-9.32 33.9-5.67 11.3 3.59 16.6 17.01 19.9 27.4 3.03 9.57 5.38 21.06 1.84 30.82-4.17 11.49-17.52 15.73-27.91 19.75-10.32 3.99-20.97 7.21-31.87 9.2-9.29 1.69-22.66 4.62-31.35-.53-4.88-2.89-8.04-7.5-11.47-11.81-3.52-4.44-6.96-8.46-9.98-13.29-2.11-3.38-3.77-6.97-5.75-10.42-3.05-5.28-.82-8.84 3.55-12.7 1.16-1.02-.54-2.72-1.7-1.7-2.79 2.47-5.85 5.49-5.96 9.48-.09 2.99 1.63 5.21 3 7.69 2.71 4.89 5.2 9.81 8.32 14.49 2.8 4.19 6.38 7.96 9.5 11.91 7.16 9.07 15.77 11.96 27.03 11.16 12.93-.91 25.72-3.75 38-7.84 5.79-1.92 11.48-4.12 17.09-6.53 5.52-2.37 11.3-4.75 15.75-8.91 7.72-7.22 8.63-18.29 7.24-28.2-1.65-11.82-5.95-24.83-13.31-34.39-6.42-8.34-17.58-10.79-27.57-8.53-14.66 3.31-29.19 10.06-42.68 16.55-13.07 6.29-26.16 12.64-36.42 23.12-1.07 1.11.62 2.81 1.71 1.7" class="st4"/><path d="M196.83 183.02c-6.27 5.39-11.53-4.96-14.07-9.01l-7.92-12.6c-4.96-7.89-9.9-15.78-14.72-23.76-4.81-7.97-9.49-16.02-13.91-24.22-2.35-4.37-4.63-8.78-6.81-13.24-2.24-4.59-6.56-10.91-5.58-16.18.94-5.08 8.47-8.33 13.15-9.26 11.33-2.24 7.42 7.12 4.18 11.96-4.34 6.46-4.4 11.94-1.64 19.24 2.23 5.92 5.28 11.92 11.07 15.03 3.99 2.14 8.56 2.85 12.67 4.71 4.3 1.95 8.06 4.72 11.4 8.04 1.1 1.09 2.79-.61 1.7-1.7-5.53-5.49-11.89-8.7-19.24-11.07-5.36-1.73-9.3-4.13-12.25-9.08-2.39-4.01-4.76-9.47-5.06-14.19-.5-7.87 8.3-12.41 7.25-20.26-.77-5.81-5.91-6.45-10.72-4.99-5.32 1.61-13.49 4.15-14.83 10.35-1.56 7.21 4.41 15.84 7.48 21.95 8.64 17.2 18.65 33.67 28.84 49.99 5.43 8.69 10.51 17.83 16.48 26.15 3.35 4.66 9.16 8.19 14.22 3.84 1.18-1.02-.53-2.71-1.69-1.7" class="st4"/><path d="M156.61 73.33c8.49-1.7 14.38 1.23 18.51 8.79 2.91 5.34 6.75 12.3 7.41 18.39.78 7.23-9.92 4.69-14.69 5.62-4.84.94-9.09 3.21-12.83 6.37-1.18 1 .52 2.69 1.7 1.7 4.13-3.48 9.08-5.72 14.51-6.1 3.19-.23 6.9 1.02 9.89-.41 5.8-2.76 4.24-6.94 2.49-12.09-2.31-6.82-5.27-14.8-10.21-20.15-4.8-5.2-10.78-5.75-17.42-4.42-1.51.29-.87 2.6.64 2.3" class="st4"/><path d="M180.36 107.71c5.37-.61 10.45 1.27 15.49 2.86 5.39 1.71 10.51 3.67 14.28 8.07 1.01 1.17 2.7-.53 1.7-1.7-3.68-4.3-8.61-6.5-13.89-8.23-5.65-1.85-11.54-4.09-17.58-3.4-1.52.17-1.53 2.57 0 2.4M290.78 115.35c9.01.36 17.64 2.03 26.47 3.68 6.97 1.3 15.93 2.77 19.39 10.12 1.93 4.11-1.61 2.6-4.26 2.15-3.51-.59-7.01-1.1-10.52-1.67-8.87-1.46-17.52-3.99-26.44-5.19-1.51-.2-2.16 2.11-.64 2.31 11.42 1.54 22.76 4.32 34.12 6.32 2.76.49 11.88 3.51 11.05-2.62-.45-3.36-4.86-7.02-7.29-8.84-2.9-2.17-5.97-3.14-9.48-3.9-10.7-2.3-21.44-4.34-32.39-4.77-1.56-.05-1.56 2.35-.01 2.41" class="st4"/><path d="M296.82 134.11c4 .81 7.99.76 12.06.93 5.17.21 10.28 1.14 15.46 1.32 4.48.15 15.68 1.85 15.43-5.38-.05-1.54-2.45-1.55-2.4 0 .18 5.23-17.52 2.73-20.57 2.38-6.4-.73-13.03-.29-19.34-1.56-1.51-.31-2.16 2-.64 2.31M198.68 197.8c31.8-.23 63.59-.45 95.39-.68 1.54-.01 1.55-2.41 0-2.4-31.8.23-63.59.45-95.39.68-1.55.02-1.55 2.42 0 2.4M698.37 132.07c9.73-5.4 19.99-7.72 30.83-9.78 11.92-2.26 23.96-3.95 36.06-4.81 11.01-.78 23.12-2.32 32.84 4.03 9.96 6.51 11.31 20.56 11.6 31.46.27 9.98-.66 21.47-6.43 29.98-6.85 10.1-19.95 10.64-31 11.62-11.44 1.02-22.99 1.19-34.42-.02-9.23-.98-22.63-1.92-29.78-8.71-3.96-3.76-6.13-9.13-7.94-14.13-1.95-5.38-4.45-10.3-6-15.88-1.2-4.3-1.95-8.67-2.93-13.01-1.3-5.77 2.15-8.42 7.17-10.75 1.4-.65.18-2.72-1.21-2.07-7.58 3.52-9.59 7.53-7.78 15.29 2.65 11.31 5.35 22.22 10.54 32.7 4.53 9.16 10.79 13.8 20.7 16.15 13.1 3.11 26.75 4.01 40.17 3.56 7.03-.24 14.05-.86 21.03-1.77 5.45-.71 11.05-1.59 15.86-4.42 8.47-4.97 12.13-14.75 13.55-24 1.83-11.87 1.44-25.67-2.94-37.01-3.6-9.32-12.88-14.86-22.6-15.88-14.85-1.55-31.02 1.08-45.7 3.37-14.74 2.3-29.65 4.68-42.84 12-1.35.76-.14 2.83 1.22 2.08" class="st4"/><path d="M691.23 136.68c-1.38-9.52-1.74-19.11-2.08-28.71-.33-9.12-1.51-18.34-1.47-27.44.02-4.12.07-8.25.35-12.36.3-4.41-.14-10.81 3.72-13.61 4.95-3.59 16.24-5.1 20.05 1.25 3.57 5.94-4.44 8.5-7.85 11.02a26.11 26.11 0 0 0-5.22 5.12c-3.24 4.23-5.05 9.49-4.98 14.83.19 15.07 16.07 22.36 19.81 36.14.4 1.49 2.72.86 2.31-.64-3.59-13.24-19.11-20.85-19.7-34.86-.28-6.66 2.65-13.03 7.63-17.4 3.86-3.38 10.92-5.24 11.46-11.35.34-3.94-3.84-6.88-7.07-8.22-4.31-1.79-9.26-1.68-13.6-.06-1.91.71-3.71 1.72-5.27 3.04-2.27 1.92-2.36 3.57-2.82 6.5-1.14 7.35-1.37 14.91-1.25 22.33.16 9.18 1.2 18.43 1.54 27.63.33 9.18.78 18.34 2.1 27.44.25 1.51 2.56.86 2.34-.65" class="st4"/><path d="M715.94 56.4c8.37 2.35 12.33 7.51 12.58 16.18.17 6.01.38 14.09-1.72 19.74-2.64 7.07-9.95.31-14.47-1.22-5.05-1.71-10.3-1.72-15.46-.53-1.51.35-.87 2.66.64 2.32 5.76-1.33 11.62-.92 16.98 1.69 2.62 1.27 4.97 3.52 8.02 3.59 6.65.17 6.87-5.13 7.57-10.47.93-7.01 1.99-15.6-.24-22.44-2.08-6.41-7.03-9.43-13.26-11.18-1.49-.41-2.12 1.9-.64 2.32" class="st4"/><path d="M721.52 97.8c9.22 4.38 15.63 12.39 20.97 20.84.82 1.3 2.9.1 2.07-1.21-5.55-8.78-12.26-17.16-21.83-21.7-1.39-.66-2.61 1.4-1.21 2.07M706.44 197.8l95.39-.68c1.54-.01 1.55-2.41 0-2.4-31.8.23-63.59.45-95.39.68-1.55.01-1.55 2.41 0 2.4" class="st4"/><path d="M304.41 196.31s43-13.46 18.5-53.04l-2.5 6.44" style="clip-path:url(#SVGID_4_);fill:none;stroke:#fff;stroke-width:3;stroke-linecap:round;stroke-linejoin:round;stroke-miterlimit:10"/></g><path d="m323.41 143.44 7.47 1.57" class="st6"/><g class="st0"><defs><path id="SVGID_7_" d="M-.09.32h996.18v247.02H-.09z"/></defs><clipPath id="SVGID_8_"><use xlink:href="#SVGID_7_" style="overflow:visible"/></clipPath><path d="M822.89 140.85s38.47 23.46 5.12 55.94l-.87-6.85" style="clip-path:url(#SVGID_8_);fill:none;stroke:#fff;stroke-width:3;stroke-linecap:round;stroke-linejoin:round;stroke-miterlimit:10"/></g><path d="m828.54 196.75 7.63.27" class="st6"/></svg>