<svg xmlns="http://www.w3.org/2000/svg" xml:space="preserve" id="Capa_1" x="0" y="0" style="enable-background:new 0 0 544 117" version="1.1" viewBox="0 0 544 117"><style>.st0{fill:#1191a4}</style><path d="M119.52 42.36c-2.33-.86-4.98-1.29-7.88-1.29-5.15 0-9.43 1.67-12.72 4.97C95.65 49.3 94 53.56 94 58.71s1.67 9.42 4.96 12.72c3.26 3.26 7.53 4.92 12.68 4.92.44 0 .86-.01 1.25-.02.41-.01.8-.04 1.15-.08 3.08-.29 5.56-1.11 7.38-2.45l2.19-1.59c.25-.18.39-.47.39-.76V69.3c0-.36-.2-.68-.52-.84a.936.936 0 0 0-.98.07c-1.72 1.25-3.14 2.15-4.23 2.69-1.86.9-4.09 1.36-6.63 1.36-4.05 0-7.42-1.32-10.01-3.91-2.6-2.6-3.86-5.86-3.86-9.97 0-4.12 1.28-7.39 3.9-10.03 2.63-2.62 5.89-3.9 9.97-3.9 2.4 0 4.71.45 6.86 1.33 1.45.61 2.74 1.4 3.95 2.41a.95.95 0 0 0 1.56-.73v-2.32c0-.3-.13-.58-.37-.75-1.33-1.02-2.71-1.81-4.12-2.35M136.15 54.89c-2.99 0-5.52 1.06-7.54 3.14-2.06 2.06-3.1 4.6-3.1 7.54 0 2.98 1.04 5.52 3.1 7.59 2.02 2.02 4.56 3.05 7.54 3.05s5.52-1.05 7.58-3.1c2.03-2.03 3.06-4.56 3.06-7.54 0-2.97-1.05-5.52-3.1-7.58-2.05-2.05-4.59-3.1-7.54-3.1m0 3.72c1.97 0 3.58.67 4.93 2.04 1.34 1.35 1.99 2.95 1.99 4.92 0 1.94-.67 3.55-2.04 4.92-1.35 1.35-2.94 2-4.88 2-1.91 0-3.51-.67-4.88-2.04s-2.04-2.97-2.04-4.89c0-1.88.68-3.47 2.09-4.88 1.39-1.39 2.96-2.07 4.83-2.07M161.85 54.94c-2.64 0-4.91.8-6.78 2.38v-1.16a.95.95 0 0 0-.95-.95h-1.86a.95.95 0 0 0-.95.95v27.6c0 .52.43.95.95.95h1.86c.53 0 .95-.43.95-.95v-9.99c1.91 1.62 4.19 2.44 6.78 2.44 2.98 0 5.52-1.04 7.59-3.1 2.02-2.03 3.05-4.57 3.05-7.54 0-2.97-1.05-5.52-3.1-7.58-2.03-2.03-4.56-3.05-7.54-3.05m0 3.72c1.91 0 3.51.67 4.89 2.04 1.37 1.37 2.04 2.97 2.04 4.88 0 1.94-.67 3.55-2.04 4.92-1.35 1.35-2.94 2-4.89 2-1.91 0-3.51-.67-4.88-2.04s-2.04-2.97-2.04-4.88c0-1.94.67-3.55 2.04-4.92 1.34-1.35 2.94-2 4.88-2M192.78 55.21h-2.05c-.37 0-.71.21-.86.55l-6.06 13-6.14-13a.961.961 0 0 0-.86-.55h-2c-.32 0-.63.17-.8.44a.98.98 0 0 0-.06.91l7.73 16.66L177 83.37c-.13.3-.11.64.06.91.17.27.48.44.8.44h2.09c.37 0 .71-.21.86-.55l12.83-27.61a.952.952 0 0 0-.86-1.35M206.74 55.36c-.71-.25-1.57-.37-2.63-.37-.98 0-1.89.36-2.69 1.08a.944.944 0 0 0-.94-.85h-1.87a.95.95 0 0 0-.95.95v18.79c0 .52.43.95.95.95h1.87c.52 0 .95-.42.95-.95V62.58c0-.39.08-.82.24-1.29.17-.49.39-.94.67-1.33.26-.37.57-.68.95-.95.76-.52 1.57-.33 2.29-.05.47.18.92.43 1.32.74.21.17.48.22.74.18.26-.05.49-.2.63-.42l1-1.55c.28-.43.17-.99-.25-1.28-.82-.6-1.59-1.03-2.28-1.27M216.7 55.21h-1.86c-.53 0-.95.42-.95.95v18.79c0 .52.42.95.95.95h1.86c.52 0 .95-.43.95-.95V56.16a.95.95 0 0 0-.95-.95M215.63 48.86c-2.06.37-2.28 1.83-2.28 2.5.04.68.29 1.25.83 1.79.54.4 1.07.6 1.61.6 1.54 0 2.45-.91 2.43-2.67-.47-1.95-1.65-2.16-2.59-2.22M242.36 55.22h-1.86a.95.95 0 0 0-.95.95v1.02c-1.87-1.49-4.06-2.24-6.56-2.24-2.97 0-5.52 1.04-7.58 3.1-2.02 2.02-3.05 4.56-3.05 7.54 0 2.98 1.04 5.53 3.09 7.59 2.03 2.02 4.56 3.05 7.54 3.05 2.51 0 4.7-.75 6.56-2.24v.51c0 2.06-.57 3.67-1.69 4.79-1.1 1.13-2.64 1.67-4.73 1.67-1.57 0-2.94-.26-4.06-.78-1.31-.6-2.07-1.47-2.34-2.66a.953.953 0 0 0-.93-.74h-1.86c-.29 0-.57.14-.75.37-.18.23-.25.53-.17.81 1.11 4.49 4.52 6.77 10.11 6.77 3.01 0 5.48-.96 7.36-2.82 1.87-1.87 2.82-4.35 2.82-7.36V56.16c0-.52-.43-.94-.95-.94m-9.37 17.28c-1.91 0-3.51-.67-4.88-2.03-1.37-1.38-2.04-2.98-2.04-4.89 0-1.94.67-3.55 2.04-4.92 1.35-1.34 2.94-1.99 4.88-1.99 1.91 0 3.51.67 4.88 2.04s2.05 2.97 2.05 4.88c0 1.94-.67 3.55-2.05 4.92-1.35 1.33-2.94 1.99-4.88 1.99M257.55 54.94c-1.87 0-3.43.44-4.64 1.31V41.29c0-.52-.43-.95-.95-.95h-1.87a.95.95 0 0 0-.95.95v33.66c0 .52.42.95.95.95h1.87c.52 0 .95-.43.95-.95V62.71c0-1.23.44-2.18 1.33-2.91.93-.78 2.01-1.15 3.31-1.15 3.18 0 4.6 1.55 4.6 5.01v11.33c0 .52.42.95.95.95h1.86c.52 0 .95-.43.95-.95V63.48c0-5.58-2.89-8.54-8.36-8.54M277.29 55.21h-3.42v-7.28a.95.95 0 0 0-.95-.95h-1.86a.95.95 0 0 0-.95.95v7.28h-1.6c-.52 0-.95.43-.95.95v1.86c0 .53.43.95.95.95h1.6v15.97c0 .52.42.95.95.95h1.86c.53 0 .95-.43.95-.95V58.97h3.42c.52 0 .95-.42.95-.95v-1.86c0-.52-.43-.95-.95-.95M311.26 41.52h-14.1c-.52 0-.95.43-.95.95v32.47c0 .52.42.95.95.95h1.82c.53 0 .95-.43.95-.95V58.97h11.33c.52 0 .95-.42.95-.95v-1.86c0-.52-.43-.95-.95-.95h-11.33v-9.93h11.33c.52 0 .95-.42.95-.95v-1.86c0-.52-.43-.95-.95-.95M333.41 55.21h-1.86a.95.95 0 0 0-.95.95v1.03c-1.87-1.49-4.06-2.25-6.55-2.25-2.98 0-5.53 1.04-7.59 3.09-2.02 2.03-3.05 4.57-3.05 7.54 0 2.98 1.05 5.53 3.1 7.58 2.02 2.03 4.55 3.05 7.54 3.05 2.51 0 4.7-.75 6.55-2.23v.97c0 .53.43.95.95.95h1.86c.52 0 .95-.42.95-.95V56.16a.95.95 0 0 0-.95-.95m-9.36 17.29c-1.91 0-3.51-.67-4.88-2.04s-2.04-2.97-2.04-4.88c0-1.94.67-3.55 2.04-4.92 1.34-1.35 2.94-2 4.88-2 1.91 0 3.5.67 4.88 2.05 1.37 1.37 2.04 2.97 2.04 4.88 0 1.94-.67 3.55-2.04 4.92-1.35 1.33-2.95 1.99-4.88 1.99M357.75 54.94c-2.28 0-4.07.76-5.34 2.26-1.31-1.5-3.1-2.26-5.35-2.26-1.39 0-2.56.3-3.52.89a.956.956 0 0 0-.89-.62h-1.87c-.52 0-.95.43-.95.95v18.79c0 .52.43.95.95.95h1.87c.52 0 .95-.43.95-.95V61.98c0-1.03.31-1.81.96-2.4 1.33-1.23 3.54-1.31 5 .06.64.58.96 1.34.96 2.34v12.96c0 .52.42.95.95.95h1.86c.52 0 .95-.43.95-.95V61.98c0-2.33 1.03-3.33 3.47-3.33 1.15 0 1.99.32 2.56.96.6.68.9 1.45.9 2.37v12.96c0 .52.42.95.95.95h1.86c.52 0 .95-.43.95-.95V61.98c0-2.17-.68-3.92-2.03-5.2-1.33-1.22-3.07-1.84-5.19-1.84M389.49 55.21h-1.86a.95.95 0 0 0-.95.95v1.03c-1.87-1.49-4.06-2.25-6.55-2.25-2.98 0-5.53 1.04-7.59 3.09-2.02 2.03-3.05 4.57-3.05 7.54 0 2.98 1.05 5.53 3.1 7.58 2.02 2.03 4.55 3.05 7.54 3.05 2.51 0 4.7-.75 6.55-2.23v.97c0 .53.43.95.95.95h1.86c.52 0 .95-.42.95-.95V56.16a.95.95 0 0 0-.95-.95m-9.36 17.29c-1.91 0-3.51-.67-4.88-2.04s-2.04-2.97-2.04-4.88c0-1.94.67-3.55 2.04-4.92 1.34-1.35 2.94-2 4.88-2 1.91 0 3.5.67 4.88 2.05 1.37 1.37 2.04 2.97 2.04 4.88 0 1.94-.67 3.55-2.04 4.92-1.35 1.33-2.95 1.99-4.88 1.99M423.46 57.37c-1.12-.67-2.39-1.32-3.78-1.94-2.2-1-3.66-1.78-4.32-2.31-1.13-.97-1.67-2.06-1.67-3.33 0-1.45.51-2.58 1.57-3.46 1.02-.86 2.28-1.28 3.85-1.28 1.51 0 2.73.29 3.67.88.71.41 1.32 1.03 1.85 1.9.25.4.75.56 1.19.38l1.78-.78c.24-.11.43-.31.52-.57a.92.92 0 0 0-.07-.76c-1.75-3.16-4.75-4.77-8.93-4.77-2.54 0-4.7.79-6.43 2.32-1.83 1.54-2.75 3.6-2.75 6.13 0 2.52.91 4.58 2.68 6.12 1.02.91 2.82 1.95 5.53 3.16 1.31.58 2.42 1.12 3.29 1.6.99.55 1.51.94 1.78 1.2 1.4 1.25 2.09 2.77 2.09 4.66 0 2.01-.56 3.47-1.72 4.47-1.15.99-2.79 1.49-4.88 1.49-3.64 0-5.88-1.67-6.82-5.12a.944.944 0 0 0-.46-.59.901.901 0 0 0-.75-.06l-1.86.63c-.48.17-.75.68-.6 1.17 1.56 5.13 5.09 7.73 10.5 7.73 1.7 0 3.22-.24 4.52-.7 3.88-1.46 5.85-4.49 5.85-9.03 0-2.83-.98-5.23-2.91-7.13-.73-.67-1.61-1.33-2.72-2.01M443.02 54.89c-2.99 0-5.53 1.06-7.54 3.14-2.05 2.06-3.1 4.59-3.1 7.54 0 2.97 1.05 5.53 3.1 7.59 2.02 2.02 4.56 3.05 7.54 3.05 2.98 0 5.52-1.04 7.59-3.1 2.02-2.03 3.05-4.57 3.05-7.54 0-2.97-1.05-5.53-3.1-7.58s-4.59-3.1-7.54-3.1m0 17.61c-1.91 0-3.51-.67-4.88-2.03-1.37-1.37-2.04-2.97-2.04-4.89 0-1.88.68-3.48 2.09-4.88 1.37-1.4 2.95-2.08 4.82-2.08 1.97 0 3.58.67 4.93 2.04 1.35 1.35 1.99 2.96 1.99 4.92 0 1.94-.67 3.55-2.04 4.92-1.33 1.34-2.92 2-4.87 2M464.09 40.3c-.25-.06-.64-.09-1.41-.09-3.43 0-5.31 1.87-5.31 5.27v9.74h-1.6c-.53 0-.95.42-.95.95v1.86c0 .52.42.95.95.95h1.6v15.97c0 .52.42.95.95.95h1.86c.52 0 .95-.43.95-.95V58.97h3.51c.52 0 .95-.42.95-.95v-1.86a.95.95 0 0 0-.95-.95h-3.51v-9.2c0-1.9.82-2.05 1.49-2.06l1.13.12 1.23.27c.29.06.58-.01.8-.18.23-.18.36-.45.36-.74v-1.86c0-.37-.21-.7-.55-.86-.53-.25-1.03-.38-1.5-.4M486.14 55.21h-1.86a.95.95 0 0 0-.95.95v1.03c-1.87-1.49-4.06-2.25-6.55-2.25-2.98 0-5.53 1.04-7.58 3.09-2.03 2.03-3.06 4.57-3.06 7.54 0 2.98 1.05 5.53 3.1 7.58 2.02 2.03 4.55 3.05 7.54 3.05 2.51 0 4.7-.75 6.55-2.23v.97c0 .53.43.95.95.95h1.86c.53 0 .95-.42.95-.95V56.16a.95.95 0 0 0-.95-.95m-9.36 17.29c-1.91 0-3.51-.67-4.88-2.04s-2.04-2.97-2.04-4.88c0-1.94.67-3.55 2.04-4.92 1.35-1.35 2.94-2 4.88-2 1.91 0 3.5.67 4.88 2.05 1.37 1.37 2.04 2.97 2.04 4.88 0 1.94-.67 3.55-2.04 4.92-1.35 1.33-2.95 1.99-4.88 1.99M503.12 64.99c-.4-.29-.95-.6-1.65-.93-.69-.33-1.57-.69-2.66-1.07-1.32-.44-1.98-.83-2.29-1.06-.45-.36-.65-.79-.65-1.36 0-1.15.4-1.91 2.33-1.91 1.35 0 2.43.41 3.28 1.26.35.36.91.37 1.29.05l1.37-1.18a.945.945 0 0 0 .05-1.39c-1.64-1.63-3.65-2.46-5.99-2.46-1.78 0-3.25.58-4.33 1.67-1.17 1.09-1.76 2.43-1.76 3.97 0 1.78.61 3.18 1.8 4.14.75.62 1.91 1.21 3.55 1.8.8.3 1.49.56 2.04.78.51.21.9.38 1.07.48.76.6 1.14 1.27 1.14 2.04 0 1.33-.39 2.69-3.33 2.69-1.09 0-1.93-.23-2.54-.7-.6-.43-1.13-1.05-1.58-1.86a.93.93 0 0 0-.59-.45.933.933 0 0 0-.73.1l-1.59.95c-.44.26-.59.82-.35 1.27 1.63 2.95 4.11 4.45 7.38 4.45 1.92 0 3.59-.6 4.98-1.77 1.4-1.19 2.11-2.77 2.11-4.68 0-2.01-.78-3.63-2.35-4.83M56.92 79.4c-10.3 0-18.67-8.38-18.67-18.67 0-10.3 8.37-18.67 18.67-18.67s18.67 8.37 18.67 18.67c-.01 10.3-8.38 18.67-18.67 18.67m0-40.15c-11.85 0-21.49 9.64-21.49 21.49s9.64 21.49 21.49 21.49 21.49-9.64 21.49-21.49-9.64-21.49-21.49-21.49" class="st0"/><path d="M57.47 67.78c-5.28 0-7.33-3.7-7.36-7.24-.03-3.57 2.2-7.42 7.36-7.42 1.86 0 3.75.64 5.16 2.01l2.69-2.59c-2.2-2.17-4.94-3.27-7.85-3.27-7.73 0-11.36 5.68-11.33 11.27.03 5.56 3.39 11.03 11.33 11.03 3.08 0 5.92-1.01 8.12-3.18l-2.75-2.78c-1.4 1.41-3.51 2.17-5.37 2.17" class="st0"/></svg>