<svg xmlns="http://www.w3.org/2000/svg" xmlns:xlink="http://www.w3.org/1999/xlink" xml:space="preserve" width="493" height="122"><style>.st0{clip-path:url(#SVGID_2_)}</style><g class="layer"><g id="svg_1"><defs><path id="SVGID_1_" d="M.16.26h491.69v122.15H.16z"/></defs><clipPath id="SVGID_2_"><use xlink:href="#SVGID_1_" id="svg_2" overflow="visible"/></clipPath><g id="svg_3" class="st0"><defs transform="translate(-1 1)"><path id="SVGID_3_" d="M.16.26h491.69v122.15H.16z"/></defs><clipPath id="SVGID_4_"><use xlink:href="#SVGID_3_" id="svg_4" overflow="visible"/></clipPath><g id="svg_5" style="opacity:.66;clip-path:url(#SVGID_4_)"><g id="svg_6"><defs transform="translate(-1 1)"><path id="SVGID_5_" d="M-8.84-6.74h509.69v130.15H-8.84z"/></defs><clipPath id="SVGID_6_"><use xlink:href="#SVGID_5_" id="svg_7" overflow="visible"/></clipPath><path id="svg_8" fill="#000" stroke-width="0" d="M16.16 1.26c-9.39 0-17 7.61-17 17v88.15c0 9.39 7.61 17 17 17h457.69c9.39 0 17-7.61 17-17V18.26c0-9.39-7.61-17-17-17H16.16z" style="clip-path:url(#SVGID_6_);fill:#008196"/></g></g><text xml:space="preserve" id="svg_16" x="315.5" y="80.5" fill="#fff" stroke-width="0" font-family="Helvetica" font-size="45" text-anchor="middle">Desbloquear</text></g><path id="svg_10" d="M49.83 54h72.35v53.06H49.83z" style="clip-path:url(#SVGID_2_);fill:none;stroke:#fff;stroke-width:4;stroke-linecap:round;stroke-linejoin:round;stroke-miterlimit:10"/><g id="svg_11" class="st0"><defs><path id="SVGID_7_" d="M.16.26h491.69v122.15H.16z"/></defs><clipPath id="SVGID_8_"><use xlink:href="#SVGID_7_" id="svg_12" overflow="visible"/></clipPath><path id="svg_13" d="M63.93 53.82V34.9s1.67-19.29 21.71-19.29 21.52 18.55 21.52 18.55v19.67" style="clip-path:url(#SVGID_8_);fill:none;stroke:#fff;stroke-width:4;stroke-linecap:round;stroke-linejoin:round;stroke-miterlimit:10"/><path id="svg_14" d="M91.87 75.91c0-3.69-2.77-6.69-6.18-6.69-3.41 0-6.18 3-6.18 6.69 0 2.74 1.53 5.1 3.71 6.13v9.21c0 1.18.89 2.14 1.98 2.14h.82c1.09 0 1.98-.96 1.98-2.14v-9.14c2.27-.99 3.87-3.39 3.87-6.2" style="clip-path:url(#SVGID_8_);fill:#fff"/><path id="svg_15" d="M91.87 75.91c0-3.69-2.77-6.69-6.18-6.69-3.41 0-6.18 3-6.18 6.69 0 2.74 1.53 5.1 3.71 6.13v9.21c0 1.18.89 2.14 1.98 2.14h.82c1.09 0 1.98-.96 1.98-2.14v-9.14c2.27-.99 3.87-3.39 3.87-6.2z" style="clip-path:url(#SVGID_8_);fill:none;stroke:#fff;stroke-width:2.41"/></g></g></g></svg>