<svg xmlns="http://www.w3.org/2000/svg" xmlns:xlink="http://www.w3.org/1999/xlink" xml:space="preserve" style="enable-background:new 0 0 996 54" viewBox="0 0 996 54"><defs><path id="a" d="M-.92 24h997.18v12H-.92z"/></defs><clipPath id="b"><use xlink:href="#a" style="overflow:visible"/></clipPath><g style="clip-path:url(#b)"><defs><path id="c" d="M-.92 24h997.18v12H-.92z"/></defs><clipPath id="d"><use xlink:href="#c" style="overflow:visible"/></clipPath><g style="opacity:.66;clip-path:url(#d)"><defs><path id="e" d="M-9.92 17h1015.18v20H-9.92z"/></defs><clipPath id="f"><use xlink:href="#e" style="overflow:visible"/></clipPath><path d="M-.92 30c5.94-5.86 17.81-5.86 23.74 0 5.94 5.86 17.81 5.86 23.74 0s17.81-5.86 23.74 0c5.94 5.86 17.81 5.86 23.74 0s17.81-5.86 23.74 0c5.94 5.86 17.81 5.86 23.74 0 5.94-5.86 17.81-5.86 23.74 0s17.81 5.86 23.74 0c5.94-5.86 17.81-5.86 23.74 0s17.81 5.86 23.74 0c5.94-5.86 17.81-5.86 23.74 0 5.94 5.86 17.81 5.86 23.74 0s17.81-5.86 23.74 0c5.94 5.86 17.81 5.86 23.74 0s17.81-5.86 23.74 0c5.94 5.86 17.81 5.86 23.74 0s17.81-5.86 23.74 0 17.81 5.86 23.74 0c5.94-5.86 17.81-5.86 23.74 0s17.81 5.86 23.74 0c5.94-5.86 17.81-5.86 23.74 0s17.81 5.86 23.74 0c5.94-5.86 17.81-5.86 23.74 0 5.94 5.86 17.81 5.86 23.74 0s17.81-5.86 23.74 0c5.94 5.86 17.81 5.86 23.74 0s17.81-5.86 23.74 0c5.94 5.86 17.81 5.86 23.74 0 5.94-5.86 17.81-5.86 23.74 0s17.81 5.86 23.74 0c5.94-5.86 17.81-5.86 23.74 0s17.81 5.86 23.74 0c5.94-5.86 17.81-5.86 23.74 0 5.94 5.86 17.81 5.86 23.74 0s17.81-5.86 23.74 0c5.94 5.86 17.81 5.86 23.74 0s17.81-5.86 23.74 0c5.94 5.86 17.81 5.86 23.74 0 5.94-5.86 17.81-5.86 23.74 0 5.94 5.86 17.81 5.86 23.74 0 5.94-5.86 17.81-5.86 23.74 0s17.81 5.86 23.74 0" style="clip-path:url(#f);fill:none;stroke:#008196;stroke-width:3.18"/></g></g></svg>