<svg xmlns="http://www.w3.org/2000/svg" xmlns:xlink="http://www.w3.org/1999/xlink" xml:space="preserve" id="Capa_1" x="0" y="0" style="enable-background:new 0 0 304 117" version="1.1" viewBox="0 0 304 117"><style>.st0{clip-path:url(#SVGID_2_);fill:#008196}</style><defs><path id="SVGID_1_" d="M36.8 17.91h229.74v69.51H36.8z"/></defs><clipPath id="SVGID_2_"><use xlink:href="#SVGID_1_" style="overflow:visible"/></clipPath><path d="M61.38 34.17H53.3c.09-2.42.63-4.1 1.63-5.02.96-.89 2.77-1.45 5.23-1.61.4-.03 1.09-.05 1.26-.05 2.2-.04 2.18-2.01 2.15-5.57-.02-1.78-.04-4-2.19-4h-.57c-5.83 0-10.28 1.42-13.22 4.21-2.85 2.71-4.35 6.75-4.48 12.04h-4.14c-2.18 0-2.18 2.09-2.18 4.73 0 2.6 0 4.66 2.18 4.66h4.39v40.57c0 2.2 2.12 2.2 4.8 2.2 3.25 0 5.21 0 5.21-2.2V43.57h8.01c.9 0 2.01-.46 2.16-2.65.04-.62.05-1.35.05-1.85 0-2.74 0-4.9-2.21-4.9M113.13 33.96c-2.72 0-4.88 0-4.88 2.23v2.51a22.036 22.036 0 0 0-4.77-3.12c-3.34-1.62-7.06-2.45-11.04-2.45-7.7 0-14.22 2.64-19.37 7.83-5.15 5.19-7.76 11.73-7.76 19.42 0 7.57 2.55 14.04 7.59 19.21 5.05 5.19 11.45 7.82 19.01 7.82 4.06 0 7.91-.86 11.44-2.55 1.81-.87 3.44-1.92 4.89-3.14v2.41c0 2.21 2.07 2.21 4.94 2.21 3.08 0 5.11 0 5.11-2.21V36.19c.01-2.23-2.16-2.23-5.16-2.23m-4.88 25.9c0 4.98-1.6 9.11-4.89 12.64-3.25 3.48-6.94 5.18-11.28 5.18-4.53 0-8.31-1.61-11.55-4.91-3.25-3.31-4.83-7.28-4.83-12.12 0-5.12 1.59-9.27 4.87-12.71 3.25-3.41 7.07-5.06 11.68-5.06 4.2 0 7.83 1.66 11.1 5.07 3.3 3.42 4.9 7.32 4.9 11.91M184.66 33.21c-3.87 0-7.44.8-10.6 2.37a20.872 20.872 0 0 0-6.28 4.78c-1.6-1.86-3.6-3.42-6-4.64-3.27-1.66-6.92-2.51-10.85-2.51-3.4 0-6.51.6-9.24 1.78a19.61 19.61 0 0 0-3.65 2.07v-.88c0-2.24-2.29-2.24-4.95-2.24-2.99 0-5.14 0-5.15 2.24v47.95c0 1.32.93 2.05 2.77 2.15.53.03 1.27.04 2.06.04 3.28 0 5.26 0 5.26-2.2v-23.3c0-4.01.14-6.83.42-8.38.26-1.44.72-2.72 1.35-3.81 1.04-1.78 2.41-3.1 4.19-4.05 1.8-.96 3.96-1.44 6.4-1.44 4.04 0 6.9 1.06 8.75 3.23 1.91 2.24 2.88 5.92 2.88 10.92v26.85c0 1.32.93 2.05 2.75 2.15.53.03 1.25.05 2.02.05 3.04 0 5.06 0 5.06-2.2V60.82c0-4.01.15-6.83.44-8.36.28-1.45.73-2.75 1.33-3.83 1.04-1.78 2.4-3.11 4.16-4.06 1.77-.95 3.88-1.44 6.26-1.44 4.12 0 6.95 1.06 8.65 3.25 1.8 2.31 2.71 6.45 2.71 12.3v25.46c0 1.99 2.1 2.11 2.79 2.15.55.03 1.28.05 2.08.05 3.04 0 5.05 0 5.05-2.2V59.95c0-9.2-1.59-15.76-4.86-20.07-3.33-4.43-8.66-6.67-15.8-6.67M261.75 33.91c-2.94 0-5.26 0-5.26 2.28v2.51a22.036 22.036 0 0 0-4.77-3.12c-3.34-1.62-7.06-2.45-11.04-2.45-7.7 0-14.22 2.64-19.37 7.83-5.15 5.19-7.76 11.73-7.76 19.42 0 7.57 2.55 14.04 7.59 19.21 5.05 5.19 11.45 7.82 19.01 7.82 4.06 0 7.91-.86 11.44-2.55 1.81-.87 3.44-1.92 4.89-3.14v2.41c0 2.22 2.21 2.22 5 2.22 2.93 0 5.05 0 5.05-2.22V36.19c.01-2.28-2.43-2.28-4.78-2.28m-5.26 25.95c0 4.98-1.6 9.11-4.88 12.64-3.25 3.48-6.94 5.18-11.28 5.18-4.53 0-8.31-1.61-11.55-4.91-3.25-3.31-4.83-7.28-4.83-12.12 0-5.12 1.59-9.28 4.87-12.71 3.25-3.41 7.07-5.06 11.68-5.06 4.2 0 7.83 1.66 11.1 5.07 3.29 3.42 4.89 7.32 4.89 11.91" class="st0"/></svg>