<svg xmlns="http://www.w3.org/2000/svg" xmlns:xlink="http://www.w3.org/1999/xlink" xml:space="preserve" style="enable-background:new 0 0 996 159" viewBox="0 0 996 159"><defs><path id="a" d="M.17.3h995.67v159.41H.17z"/></defs><clipPath id="b"><use xlink:href="#a" style="overflow:visible"/></clipPath><g style="clip-path:url(#b)"><defs><path id="c" d="M.17.3h995.67v159.41H.17z"/></defs><clipPath id="d"><use xlink:href="#c" style="overflow:visible"/></clipPath><g style="opacity:.66;clip-path:url(#d)"><defs><path id="e" d="M-8.83-6.7h1013.67v167.41H-8.83z"/></defs><clipPath id="f"><use xlink:href="#e" style="overflow:visible"/></clipPath><path d="M17.17.3c-9.39 0-17 7.61-17 17v125.4c0 9.39 7.61 17 17 17h961.67c9.39 0 17-7.61 17-17V17.3c0-9.39-7.61-17-17-17H17.17z" style="clip-path:url(#f);fill:#008196"/></g><path d="M630.01 62.58h-5.35l-10.45 28.44-2.61 8.09-2.61-8.15-10.46-28.38h-5.35l15.62 41.07h5.66l15.55-41.07zm-40.57 0h-33.6v4.67h14.31v36.4h4.98v-36.4h14.31v-4.67zM515.39 76.2c6.28 0 10.08 4.48 10.08 11.88s-3.8 11.88-10.08 11.88c-6.29 0-10.08-4.48-10.08-11.88s3.8-11.88 10.08-11.88m0-4.29c-9.4 0-15.06 6.1-15.06 16.18s5.66 16.18 15.06 16.18 15.06-6.1 15.06-16.18-5.66-16.18-15.06-16.18m-39.45 28c-6.1 0-9.77-4.6-9.77-11.82 0-7.22 3.67-11.82 9.77-11.82 5.91 0 9.77 4.42 9.77 11.45v.75c0 7.02-3.86 11.44-9.77 11.44m9.77-41.69v19.17c-1.93-3.24-5.66-5.48-10.33-5.48-8.65 0-14.19 6.04-14.19 16.18s5.54 16.18 14.19 16.18c4.92 0 8.84-2.49 10.64-6.04l.31 5.41h4.36V58.22h-4.98zM438.36 76.2c6.28 0 10.08 4.48 10.08 11.88s-3.8 11.88-10.08 11.88-10.08-4.48-10.08-11.88 3.79-11.88 10.08-11.88m0-4.29c-9.4 0-15.06 6.1-15.06 16.18s5.66 16.18 15.06 16.18 15.06-6.1 15.06-16.18-5.67-16.18-15.06-16.18m-25.08-9.33h-7.65l-8.96 25.01-3.17 10.21h-.12l-3.11-10.27-9.02-24.95h-7.65v41.07h4.73V77.82l-.56-10.83h.06l13.5 36.65h4.23l13.5-36.65h.06l-.56 10.83v25.82h4.73V62.58z" style="clip-path:url(#d);fill:#fff"/></g></svg>