<?xml version="1.0" standalone="no"?>
<!DOCTYPE svg PUBLIC "-//W3C//DTD SVG 20010904//EN"
 "http://www.w3.org/TR/2001/REC-SVG-20010904/DTD/svg10.dtd">
<svg version="1.0" xmlns="http://www.w3.org/2000/svg"
 width="575.000000pt" height="552.000000pt" viewBox="0 0 575.000000 552.000000"
 preserveAspectRatio="xMidYMid meet">

<g transform="translate(0.000000,552.000000) scale(0.100000,-0.100000)"
fill="#000000" stroke="none">
<path d="M2648 5243 c7 -3 16 -2 19 1 4 3 -2 6 -13 5 -11 0 -14 -3 -6 -6z"/>
<path d="M2910 5233 c0 -14 2 -15 9 -5 6 10 27 -10 76 -72 38 -47 70 -86 73
-86 5 0 2 5 -77 103 -63 78 -81 91 -81 60z"/>
<path d="M2552 5233 c9 -2 19 -12 21 -21 4 -16 5 -16 6 0 0 9 11 19 24 21 12
2 2 4 -23 4 -25 1 -37 -1 -28 -4z"/>
<path d="M2498 5223 c7 -3 16 -2 19 1 4 3 -2 6 -13 5 -11 0 -14 -3 -6 -6z"/>
<path d="M3245 5201 c-3 -6 0 -8 9 -5 8 3 16 -1 19 -10 4 -14 5 -14 3 0 -1 20
-21 30 -31 15z"/>
<path d="M2903 5155 c0 -22 2 -30 4 -17 2 12 2 30 0 40 -3 9 -5 -1 -4 -23z"/>
<path d="M3163 5137 c-74 -62 -89 -78 -48 -49 36 25 122 101 115 101 -3 0 -33
-23 -67 -52z"/>
<path d="M2583 5135 c0 -22 2 -30 4 -17 2 12 2 30 0 40 -3 9 -5 -1 -4 -23z"/>
<path d="M3263 5105 c0 -22 2 -30 4 -17 2 12 2 30 0 40 -3 9 -5 -1 -4 -23z"/>
<path d="M2047 5109 c4 -13 8 -18 11 -10 2 7 -1 18 -6 23 -8 8 -9 4 -5 -13z"/>
<path d="M3692 5095 c0 -16 2 -22 5 -12 2 9 2 23 0 30 -3 6 -5 -1 -5 -18z"/>
<path d="M2893 5055 c0 -22 2 -30 4 -17 2 12 2 30 0 40 -3 9 -5 -1 -4 -23z"/>
<path d="M3600 5040 c-23 -27 -40 -50 -37 -50 3 0 24 23 47 50 23 28 40 50 37
50 -3 0 -24 -22 -47 -50z"/>
<path d="M2061 5064 c0 -11 3 -14 6 -6 3 7 2 16 -1 19 -3 4 -6 -2 -5 -13z"/>
<path d="M2593 5035 c0 -22 2 -30 4 -17 2 12 2 30 0 40 -3 9 -5 -1 -4 -23z"/>
<path d="M2071 5024 c0 -11 3 -14 6 -6 3 7 2 16 -1 19 -3 4 -6 -2 -5 -13z"/>
<path d="M3253 5005 c0 -22 2 -30 4 -17 2 12 2 30 0 40 -3 9 -5 -1 -4 -23z"/>
<path d="M1745 5000 c28 -4 59 -11 70 -14 11 -4 7 0 -10 8 -16 8 -48 15 -70
14 -39 0 -39 -1 10 -8z"/>
<path d="M1620 4964 c-31 -27 -60 -73 -60 -96 0 -7 9 5 19 28 10 22 34 53 52
67 19 15 31 27 27 27 -3 0 -20 -12 -38 -26z"/>
<path d="M3703 4915 c0 -44 2 -61 4 -37 2 23 2 59 0 80 -2 20 -4 1 -4 -43z"/>
<path d="M2883 4945 c0 -22 2 -30 4 -17 2 12 2 30 0 40 -3 9 -5 -1 -4 -23z"/>
<path d="M3529 4953 l-24 -28 28 24 c25 23 32 31 24 31 -2 0 -14 -12 -28 -27z"/>
<path d="M2091 4954 c0 -11 3 -14 6 -6 3 7 2 16 -1 19 -3 4 -6 -2 -5 -13z"/>
<path d="M2603 4935 c0 -22 2 -30 4 -17 2 12 2 30 0 40 -3 9 -5 -1 -4 -23z"/>
<path d="M4025 4960 c3 -5 28 -21 54 -36 l49 -26 -20 -37 c-17 -33 -15 -31 18
16 9 13 15 13 32 4 12 -6 22 -10 22 -7 0 2 -36 24 -80 49 -44 25 -78 42 -75
37z"/>
<path d="M3243 4905 c0 -22 2 -30 4 -17 2 12 2 30 0 40 -3 9 -5 -1 -4 -23z"/>
<path d="M2101 4914 c0 -11 3 -14 6 -6 3 7 2 16 -1 19 -3 4 -6 -2 -5 -13z"/>
<path d="M3456 4866 c-50 -58 -64 -87 -18 -35 l29 32 93 -31 c51 -18 95 -30
97 -28 3 2 -39 18 -92 36 l-96 32 22 24 c12 13 20 24 17 24 -3 0 -26 -24 -52
-54z"/>
<path d="M2351 4864 c0 -11 3 -14 6 -6 3 7 2 16 -1 19 -3 4 -6 -2 -5 -13z"/>
<path d="M2580 4870 l-35 -7 38 -2 c20 0 37 4 37 9 0 6 -1 9 -2 9 -2 -1 -19
-5 -38 -9z"/>
<path d="M2663 4873 c9 -2 23 -2 30 0 6 3 -1 5 -18 5 -16 0 -22 -2 -12 -5z"/>
<path d="M4190 4865 c0 -7 61 -37 66 -33 2 3 -12 12 -31 21 -19 9 -35 15 -35
12z"/>
<path d="M2121 4844 c0 -11 3 -14 6 -6 3 7 2 16 -1 19 -3 4 -6 -2 -5 -13z"/>
<path d="M1552 4820 c0 -14 2 -19 5 -12 2 6 2 18 0 25 -3 6 -5 1 -5 -13z"/>
<path d="M2320 4824 c-33 -13 -33 -14 -5 -8 17 3 34 10 40 15 11 11 8 11 -35
-7z"/>
<path d="M2131 4804 c0 -11 3 -14 6 -6 3 7 2 16 -1 19 -3 4 -6 -2 -5 -13z"/>
<path d="M4065 4790 c-9 -16 -13 -30 -11 -30 3 0 12 14 21 30 9 17 13 30 11
30 -3 0 -12 -13 -21 -30z"/>
<path d="M2215 4795 c-39 -14 -40 -14 -5 -8 41 7 82 22 60 22 -8 0 -33 -7 -55
-14z"/>
<path d="M2148 4773 c7 -3 16 -2 19 1 4 3 -2 6 -13 5 -11 0 -14 -3 -6 -6z"/>
<path d="M3713 4735 c0 -22 2 -30 4 -17 2 12 2 30 0 40 -3 9 -5 -1 -4 -23z"/>
<path d="M1908 4712 l-17 -37 19 24 c11 13 20 29 20 37 0 21 -3 17 -22 -24z"/>
<path d="M1570 4731 c0 -6 4 -13 10 -16 6 -3 7 1 4 9 -7 18 -14 21 -14 7z"/>
<path d="M4015 4700 c-9 -16 -13 -30 -11 -30 3 0 12 14 21 30 9 17 13 30 11
30 -3 0 -12 -13 -21 -30z"/>
<path d="M4448 4695 c28 -23 31 -29 20 -44 -12 -14 -11 -15 5 -2 15 12 20 11
40 -6 23 -21 61 -44 42 -26 -21 20 -111 90 -125 97 -8 5 0 -4 18 -19z"/>
<path d="M1610 4676 c26 -29 78 -61 87 -53 2 3 -5 8 -17 12 -12 4 -38 21 -58
38 -35 29 -35 30 -12 3z"/>
<path d="M1155 4678 c-29 -16 -65 -50 -77 -73 -6 -11 5 -3 23 18 19 21 52 44
74 52 22 8 31 14 20 14 -11 0 -29 -5 -40 -11z"/>
<path d="M1281 4681 c36 -12 70 -30 99 -55 l25 -21 -20 24 c-24 27 -87 61
-112 60 -12 0 -9 -3 8 -8z"/>
<path d="M1845 4645 c-22 -14 -36 -25 -31 -25 10 0 76 40 76 46 0 6 -2 5 -45
-21z"/>
<path d="M3975 4630 c-9 -16 -13 -30 -11 -30 3 0 12 14 21 30 9 17 13 30 11
30 -3 0 -12 -13 -21 -30z"/>
<path d="M4356 4510 c-53 -66 -100 -120 -105 -120 -4 0 -16 9 -26 20 -10 11
-22 20 -27 20 -6 0 16 -21 49 -47 66 -53 92 -70 51 -33 -16 14 -28 29 -28 33
0 7 120 161 178 230 8 9 13 17 10 17 -3 0 -49 -54 -102 -120z"/>
<path d="M1733 4613 c15 -2 37 -2 50 0 12 2 0 4 -28 4 -27 0 -38 -2 -22 -4z"/>
<path d="M1411 4580 c14 -31 19 -36 19 -24 0 6 -7 19 -16 30 -14 18 -14 18 -3
-6z"/>
<path d="M1053 4510 c0 -25 2 -35 4 -22 2 12 2 32 0 45 -2 12 -4 2 -4 -23z"/>
<path d="M1431 4514 c0 -11 3 -14 6 -6 3 7 2 16 -1 19 -3 4 -6 -2 -5 -13z"/>
<path d="M1432 4460 c0 -14 2 -19 5 -12 2 6 2 18 0 25 -3 6 -5 1 -5 -13z"/>
<path d="M1060 4452 c-1 -44 95 -144 137 -142 4 1 -5 8 -22 17 -46 24 -76 54
-96 98 -10 22 -19 34 -19 27z"/>
<path d="M1376 4358 c-37 -39 -33 -44 7 -9 16 14 43 53 35 50 -2 0 -21 -19
-42 -41z"/>
<path d="M4668 4383 c7 -3 16 -2 19 1 4 3 -2 6 -13 5 -11 0 -14 -3 -6 -6z"/>
<path d="M4758 4383 c7 -3 16 -2 19 1 4 3 -2 6 -13 5 -11 0 -14 -3 -6 -6z"/>
<path d="M4603 4358 c-35 -25 -83 -93 -83 -118 0 -8 9 3 19 25 18 40 58 82 96
103 11 6 15 12 10 12 -6 0 -25 -10 -42 -22z"/>
<path d="M4791 4377 c2 -2 22 -15 44 -31 l40 -27 -35 30 c-19 17 -39 31 -44
31 -5 0 -7 -1 -5 -3z"/>
<path d="M782 4275 c-29 -35 -52 -67 -52 -71 0 -4 9 5 21 20 11 14 25 26 30
26 9 0 159 -117 246 -191 l33 -28 -26 -33 c-18 -23 -14 -21 11 7 20 22 46 54
57 70 19 28 18 28 -9 -3 l-28 -33 -138 111 c-75 61 -137 113 -137 116 0 3 12
21 26 40 46 60 20 37 -34 -31z"/>
<path d="M1233 4303 c15 -2 37 -2 50 0 12 2 0 4 -28 4 -27 0 -38 -2 -22 -4z"/>
<path d="M4876 4297 c3 -10 9 -15 12 -12 3 3 0 11 -7 18 -10 9 -11 8 -5 -6z"/>
<path d="M4902 4210 c0 -14 2 -19 5 -12 2 6 2 18 0 25 -3 6 -5 1 -5 -13z"/>
<path d="M4512 4190 c0 -19 2 -27 5 -17 2 9 2 25 0 35 -3 9 -5 1 -5 -18z"/>
<path d="M4538 4095 c19 -37 83 -85 114 -85 7 0 -5 9 -28 19 -22 10 -53 34
-68 52 -15 19 -23 25 -18 14z"/>
<path d="M4683 4003 c9 -2 23 -2 30 0 6 3 -1 5 -18 5 -16 0 -22 -2 -12 -5z"/>
<path d="M598 3943 c7 -3 16 -2 19 1 4 3 -2 6 -13 5 -11 0 -14 -3 -6 -6z"/>
<path d="M543 3918 c-22 -24 -57 -88 -48 -88 2 0 14 18 25 39 11 22 30 47 42
55 12 9 18 16 12 16 -6 0 -20 -10 -31 -22z"/>
<path d="M658 3912 c15 -15 29 -26 31 -25 6 4 -41 53 -50 53 -4 0 4 -13 19
-28z"/>
<path d="M723 3878 c-18 -13 -38 -40 -47 -60 -19 -49 -12 -49 13 0 26 50 44
64 94 73 l42 6 -35 2 c-22 1 -47 -7 -67 -21z"/>
<path d="M830 3886 c0 -3 9 -10 20 -16 11 -6 20 -8 20 -6 0 3 -9 10 -20 16
-11 6 -20 8 -20 6z"/>
<path d="M5083 3883 c9 -2 25 -2 35 0 9 3 1 5 -18 5 -19 0 -27 -2 -17 -5z"/>
<path d="M5013 3873 c9 -2 25 -2 35 0 9 3 1 5 -18 5 -19 0 -27 -2 -17 -5z"/>
<path d="M4943 3863 c9 -2 25 -2 35 0 9 3 1 5 -18 5 -19 0 -27 -2 -17 -5z"/>
<path d="M4873 3853 c9 -2 25 -2 35 0 9 3 1 5 -18 5 -19 0 -27 -2 -17 -5z"/>
<path d="M4812 3843 c17 -3 30 -14 38 -34 7 -16 16 -32 21 -34 4 -3 0 13 -9
35 -15 35 -21 40 -47 38 -29 -1 -29 -1 -3 -5z"/>
<path d="M5119 3813 l-24 -28 28 24 c25 23 32 31 24 31 -2 0 -14 -12 -28 -27z"/>
<path d="M881 3807 c0 -15 -8 -41 -16 -57 -9 -17 -13 -30 -11 -30 13 0 37 64
33 88 l-4 27 -2 -28z"/>
<path d="M469 3798 c-10 -19 -9 -24 11 -37 40 -28 200 -113 200 -107 0 3 -14
12 -30 21 l-30 16 21 40 c11 23 16 38 11 35 -5 -3 -15 -19 -22 -36 -7 -16 -16
-30 -20 -30 -7 0 -130 67 -138 75 -2 2 1 13 8 24 6 12 8 21 6 21 -3 0 -11 -10
-17 -22z"/>
<path d="M5028 3705 c-45 -54 -65 -72 -74 -64 -9 8 -11 5 -7 -9 3 -11 -6 -31
-22 -50 -15 -18 -25 -32 -22 -32 3 0 48 52 101 115 53 63 94 115 92 115 -3 0
-33 -34 -68 -75z"/>
<path d="M4905 3710 c14 -27 28 -50 30 -50 3 0 -6 23 -20 50 -14 28 -28 50
-30 50 -3 0 6 -22 20 -50z"/>
<path d="M810 3650 c-11 -22 -25 -40 -31 -40 -5 0 -28 9 -49 20 -22 11 -40 18
-40 15 0 -2 22 -16 49 -29 l48 -25 27 49 c15 28 25 50 22 50 -3 0 -15 -18 -26
-40z"/>
<path d="M427 3418 c-42 -131 -69 -243 -94 -383 -22 -128 -25 -584 -5 -715 23
-141 81 -368 128 -496 53 -143 155 -350 172 -347 6 2 9 -4 6 -11 -11 -30 179
-305 329 -477 206 -236 504 -464 796 -609 157 -78 435 -176 473 -167 10 3 16
2 13 -3 -5 -8 155 -41 295 -61 128 -19 502 -16 630 5 463 74 793 211 1154 479
154 114 413 373 522 520 189 255 322 506 404 762 34 107 36 117 74 300 58 279
58 599 0 910 -8 44 -20 91 -26 105 -6 14 -10 31 -9 38 2 14 -64 230 -77 249
-8 12 -52 7 -52 -6 0 -15 60 -184 70 -196 5 -6 8 -14 5 -17 -5 -5 30 -168 42
-198 3 -8 5 -18 5 -23 -1 -4 5 -62 14 -130 20 -148 14 -512 -9 -647 -50 -283
-119 -491 -246 -735 -351 -678 -1006 -1188 -1703 -1326 -244 -48 -554 -62
-776 -35 -74 9 -138 14 -143 11 -5 -4 -9 -2 -9 2 0 5 -42 17 -92 27 -132 26
-368 106 -511 174 -433 207 -843 581 -1088 994 -29 48 -56 85 -62 81 -6 -3 -7
-1 -3 5 3 6 -14 50 -38 99 -85 171 -138 312 -186 503 -31 124 -33 130 -52 265
-19 136 -16 494 6 633 22 141 65 321 105 432 30 86 29 99 -10 100 -12 0 -26
-30 -52 -112z"/>
<path d="M3320 3386 c-19 -8 -105 -26 -190 -40 -85 -15 -216 -38 -290 -51 -74
-13 -216 -38 -315 -55 -298 -52 -499 -87 -718 -126 l-208 -37 -100 47 c-56 25
-108 46 -116 46 -17 0 -83 -23 -263 -94 l-115 -44 -2 -194 c-2 -106 0 -198 5
-204 4 -6 84 -50 177 -99 94 -48 193 -100 220 -115 28 -15 176 -93 330 -175
154 -81 341 -180 415 -220 74 -40 205 -108 290 -152 l155 -80 178 70 177 71 0
158 c0 87 3 158 8 158 4 0 77 7 162 15 204 20 713 68 1125 106 311 28 332 29
366 14 20 -9 47 -15 60 -13 l24 3 0 148 0 149 -240 132 c-132 73 -429 237
-659 364 -231 128 -425 232 -430 231 -6 0 -27 -6 -46 -13z m40 -151 c0 -83 -4
-135 -10 -135 -6 0 -10 52 -10 135 0 83 4 135 10 135 6 0 10 -52 10 -135z
m357 -51 c175 -97 461 -255 636 -351 l317 -175 0 -125 0 -125 -92 50 c-51 27
-163 87 -248 132 -149 79 -282 150 -730 388 l-205 108 -3 137 c-1 75 0 137 2
137 3 0 148 -79 323 -176z m-407 105 l0 -60 -201 -220 -201 -219 -511 0 -511
0 -201 107 c-110 58 -208 111 -217 118 -15 10 15 18 165 44 100 17 243 43 317
56 74 13 216 38 315 55 265 46 552 96 795 140 118 21 223 39 233 39 14 1 17
-8 17 -60z m-186 -324 c-103 -113 -189 -203 -192 -200 -5 5 30 45 228 262 80
88 146 156 148 151 2 -4 -81 -100 -184 -213z m-1756 -1 l-3 -176 -150 -59
c-82 -32 -158 -62 -167 -65 -17 -5 -18 8 -18 173 l0 178 158 61 c86 34 163 62
170 63 10 1 12 -37 10 -175z m136 129 l40 -20 -52 -12 c-89 -19 -92 -17 -92
34 l0 45 33 -13 c17 -8 50 -23 71 -34z m1806 8 c0 -12 -71 -98 -167 -203 -148
-163 -187 -198 -195 -177 -3 6 351 399 358 399 2 0 4 -9 4 -19z m221 -144
c691 -366 701 -372 672 -379 -16 -4 -201 -19 -413 -33 -693 -46 -835 -56 -846
-60 -7 -2 -27 -30 -45 -62 -18 -32 -43 -75 -56 -96 l-24 -38 -72 39 c-40 22
-175 95 -302 162 -126 67 -255 136 -285 154 l-55 31 440 5 439 5 171 187 c93
103 173 188 176 188 3 0 93 -46 200 -103z m-2092 27 c15 -19 21 -41 21 -79 0
-51 -26 -105 -51 -105 -5 0 -9 47 -9 105 0 58 4 105 9 105 5 0 19 -12 30 -26z
m210 -100 c89 -48 161 -88 161 -90 0 -2 -81 -4 -179 -4 l-180 0 21 46 c14 33
19 60 15 90 -2 24 -3 44 -1 44 2 0 75 -39 163 -86z m1251 -134 c0 -20 -7 -20
-700 -20 -688 0 -750 3 -750 32 0 4 326 8 725 8 718 0 725 0 725 -20z m-1278
-119 c838 -442 1086 -574 1207 -639 l84 -45 -34 -14 c-19 -8 -92 -37 -162 -64
l-128 -50 -72 40 c-40 21 -153 82 -252 134 -580 305 -1191 630 -1198 637 -5 4
47 29 115 55 68 26 137 54 153 61 17 7 33 13 37 13 3 1 116 -57 250 -128z
m553 -27 c72 -39 241 -131 378 -204 136 -72 247 -137 246 -144 -1 -24 -87
-151 -99 -148 -7 2 -109 55 -227 118 -267 143 -609 326 -730 390 -51 27 -93
52 -93 57 0 4 89 7 198 5 l197 -3 130 -71z m2129 -60 c39 -15 4 -22 -176 -33
-106 -7 -391 -25 -633 -42 -481 -32 -535 -34 -535 -19 0 14 35 18 455 46 215
14 464 32 555 39 189 14 311 18 334 9z m176 -92 l50 -29 -228 -21 c-125 -12
-398 -38 -607 -57 -209 -20 -465 -44 -570 -54 -104 -10 -191 -18 -193 -16 -1
1 12 27 29 57 l31 54 181 12 c100 7 360 24 577 38 217 14 440 29 495 33 174
14 181 13 235 -17z m-1611 -225 c-50 -86 -95 -157 -100 -157 -4 0 30 66 77
148 47 81 91 156 97 167 6 11 12 15 14 9 2 -6 -38 -81 -88 -167z m51 -9 c0
-19 -2 -20 -10 -8 -13 19 -13 30 0 30 6 0 10 -10 10 -22z m-20 -70 c0 -41 -20
-75 -51 -88 -49 -21 -50 -7 -7 68 42 73 58 78 58 20z m17 -165 c-6 -5 -77 29
-77 37 0 4 11 12 25 18 13 6 30 21 37 32 12 19 13 16 16 -31 2 -28 1 -53 -1
-56z"/>
</g>
</svg>
