<svg xmlns="http://www.w3.org/2000/svg" xmlns:xlink="http://www.w3.org/1999/xlink" xml:space="preserve" id="Capa_1" x="0" y="0" style="enable-background:new 0 0 493 122" version="1.1" viewBox="0 0 493 122"><style>.st0{clip-path:url(#SVGID_2_)}</style><defs><path id="SVGID_1_" d="M.16.26h491.69v122.15H.16z"/></defs><clipPath id="SVGID_2_"><use xlink:href="#SVGID_1_" style="overflow:visible"/></clipPath><g class="st0"><defs><path id="SVGID_3_" d="M.16.26h491.69v122.15H.16z"/></defs><clipPath id="SVGID_4_"><use xlink:href="#SVGID_3_" style="overflow:visible"/></clipPath><g style="opacity:.66;clip-path:url(#SVGID_4_)"><defs><path id="SVGID_5_" d="M-8.84-6.74h509.69v130.15H-8.84z"/></defs><clipPath id="SVGID_6_"><use xlink:href="#SVGID_5_" style="overflow:visible"/></clipPath><path d="M17.16.26c-9.39 0-17 7.61-17 17v88.15c0 9.39 7.61 17 17 17h457.69c9.39 0 17-7.61 17-17V17.26c0-9.39-7.61-17-17-17H17.16z" style="clip-path:url(#SVGID_6_);fill:#008196"/></g><path d="M407.78 57.22c-3.98 0-6.73 1.58-8.16 4.69l-.56-4.18h-3.32v25.5h4.08V69.46c0-5.71 3.67-8.42 6.73-8.42 1.33 0 2.45.25 3.21.66l.82-3.98c-.76-.4-1.93-.5-2.8-.5m-33.86 22.95c-2.91 0-4.64-1.12-4.64-3.26 0-2.4 2.3-3.88 6.78-4.69l5.71-1.07v3.52c0 3.36-3.77 5.5-7.85 5.5m13.87.1c-1.43 0-1.94-.61-1.94-1.84V65.89c0-5.92-4.23-8.67-10.05-8.67-4.95 0-8.98 2.45-10.3 6.22l3.01 2.19c1.38-3.21 3.93-4.85 7.29-4.85 3.83 0 5.97 2.24 5.97 5.61v1.43l-6.78 1.12c-6.58 1.12-9.95 4.13-9.95 7.96 0 4.59 3.88 6.83 8.67 6.83 3.26 0 6.58-1.38 8.21-3.77.46 2.86 2.09 3.77 4.59 3.77 1.27 0 2.35-.25 3.06-.51l.26-3.21c-.61.16-1.37.26-2.04.26m-40.08-19.48c4.34 0 6.94 2.91 7.5 7.6h-15.45c.6-4.8 3.41-7.6 7.95-7.6m11.42 8.36c0-6.58-4.03-11.93-11.42-11.93-7.7 0-12.04 5-12.04 13.26s4.64 13.26 12.34 13.26c5.51 0 8.67-2.09 10.61-5.56l-3.42-1.79c-.92 2.45-3.47 3.77-7.19 3.77-4.69 0-7.8-3.01-8.31-8.16h19.23c.1-.71.2-1.68.2-2.85m-35.44-11.42V71.6c0 6.02-3.83 8.57-8.16 8.57-3.67 0-6.02-1.58-6.02-6.83V57.73h-4.08V74.4c0 6.73 4.34 9.33 9.38 9.33 4.08 0 7.34-1.33 9.13-4.39l.26 3.88h3.57v-25.5h-4.08zm-39.58 22.44c-5 0-8.01-3.77-8.01-9.69s3.01-9.69 8.01-9.69c4.85 0 8.01 3.62 8.01 9.38v.61c0 5.77-3.16 9.39-8.01 9.39m8.52-22.44-.26 4.44c-1.48-2.91-4.69-4.95-8.72-4.95-7.09 0-11.63 4.95-11.63 13.26s4.54 13.26 11.63 13.26c3.82 0 6.88-1.84 8.47-4.49v14.69h4.08V57.73h-3.57zm-39.37 3.01c5.15 0 8.26 3.67 8.26 9.74s-3.11 9.74-8.26 9.74-8.26-3.67-8.26-9.74 3.11-9.74 8.26-9.74m0-3.52c-7.7 0-12.34 5-12.34 13.26s4.64 13.26 12.34 13.26 12.34-5 12.34-13.26-4.64-13.26-12.34-13.26M230.77 46h-4.08v30.9c0 4.64 1.99 6.83 6.12 6.83 1.33 0 2.7-.25 3.77-.71l.66-3.93c-1.48.56-2.35.71-3.72.71-2.09 0-2.75-.82-2.75-3.42V46zm-32.34 33.4V68.18h8.82c4.79 0 7.14 2.04 7.14 5.61s-2.35 5.61-7.14 5.61h-8.82zm0-15.04V53.39h7.96c4.79 0 7.14 1.78 7.14 5.46 0 3.72-2.35 5.51-7.14 5.51h-7.96zm-4.08 18.87h11.93c7.96 0 12.39-3.72 12.39-9.43 0-3.67-2.55-6.89-6.53-7.65v-.05c3.62-.71 5.66-3.83 5.66-7.24 0-5.71-3.52-9.28-11.48-9.28h-11.98v33.65z" style="clip-path:url(#SVGID_4_);fill:#fff"/></g><path d="M49.83 54h72.35v53.06H49.83z" style="clip-path:url(#SVGID_2_);fill:none;stroke:#fff;stroke-width:4;stroke-linecap:round;stroke-linejoin:round;stroke-miterlimit:10"/><g class="st0"><defs><path id="SVGID_7_" d="M.16.26h491.69v122.15H.16z"/></defs><clipPath id="SVGID_8_"><use xlink:href="#SVGID_7_" style="overflow:visible"/></clipPath><path d="M63.93 53.82V34.9s1.67-19.29 21.71-19.29 21.52 18.55 21.52 18.55v19.67" style="clip-path:url(#SVGID_8_);fill:none;stroke:#fff;stroke-width:4;stroke-linecap:round;stroke-linejoin:round;stroke-miterlimit:10"/><path d="M91.87 75.91c0-3.69-2.77-6.69-6.18-6.69-3.41 0-6.18 3-6.18 6.69 0 2.74 1.53 5.1 3.71 6.13v9.21c0 1.18.89 2.14 1.98 2.14h.82c1.09 0 1.98-.96 1.98-2.14v-9.14c2.27-.99 3.87-3.39 3.87-6.2" style="clip-path:url(#SVGID_8_);fill:#fff"/><path d="M91.87 75.91c0-3.69-2.77-6.69-6.18-6.69-3.41 0-6.18 3-6.18 6.69 0 2.74 1.53 5.1 3.71 6.13v9.21c0 1.18.89 2.14 1.98 2.14h.82c1.09 0 1.98-.96 1.98-2.14v-9.14c2.27-.99 3.87-3.39 3.87-6.2z" style="clip-path:url(#SVGID_8_);fill:none;stroke:#fff;stroke-width:2.41"/></g></svg>