<svg xmlns="http://www.w3.org/2000/svg" xmlns:xlink="http://www.w3.org/1999/xlink" xml:space="preserve" id="Capa_1" x="0" y="0" style="enable-background:new 0 0 426.33 426.33" version="1.1" viewBox="0 0 426.33 426.33"><style>.st0{clip-path:url(#SVGID_00000099638773140108125420000013501404078657333148_)}.st1{opacity:.66;clip-path:url(#SVGID_00000003822221658500430630000011622392334439172008_)}.st2{clip-path:url(#SVGID_00000013177600045595731980000009399119818022106041_);fill:#008196}.st3{clip-path:url(#SVGID_00000003822221658500430630000011622392334439172008_);fill:#fff}</style><defs><path id="SVGID_1_" d="M34.2 102.05h355.31v237.49H34.2z"/></defs><clipPath id="SVGID_00000047779180250500832680000015759240997897213601_"><use xlink:href="#SVGID_1_" style="overflow:visible"/></clipPath><g style="clip-path:url(#SVGID_00000047779180250500832680000015759240997897213601_)"><defs><path id="SVGID_00000003088497093539580920000004148699754418267313_" d="M34.2 102.05h355.31v237.49H34.2z"/></defs><clipPath id="SVGID_00000016766411337827892290000017464562010364283819_"><use xlink:href="#SVGID_00000003088497093539580920000004148699754418267313_" style="overflow:visible"/></clipPath><g style="opacity:.66;clip-path:url(#SVGID_00000016766411337827892290000017464562010364283819_)"><defs><path id="SVGID_00000070100908434802160190000008018686043778609585_" d="M30.51 99.18H393.2v240.77H30.51z"/></defs><clipPath id="SVGID_00000035508319580121851640000011815608984940565894_"><use xlink:href="#SVGID_00000070100908434802160190000008018686043778609585_" style="overflow:visible"/></clipPath><path d="M372.95 102.05H50.77c-9.11 0-16.57 7.46-16.57 16.57v165.74c0 9.11 7.46 16.57 16.57 16.57h234.15l20.6 34.32c3.72 6.19 12.89 5.55 15.7-1.1l14.05-33.22h37.68c9.11 0 16.57-7.46 16.57-16.57V118.62c-.01-9.11-7.46-16.57-16.57-16.57" style="clip-path:url(#SVGID_00000035508319580121851640000011815608984940565894_);fill:#008196"/></g><path d="M344.06 249.65c-1.56 0-2.56.97-2.56 2.46s1 2.43 2.56 2.43c1.59 0 2.6-.94 2.6-2.43 0-1.49-1.01-2.46-2.6-2.46m1.94-18.3h-3.88v9.15l.49 6.45h2.91l.49-6.45v-9.15zm-16.6 8.14c2.6 0 4.23 1.7 4.57 4.61h-9.32c.38-2.98 2.01-4.61 4.75-4.61m8.04 5.55c0-5.02-2.84-8.49-8.04-8.49-5.41 0-8.46 3.36-8.46 9.01s3.22 9.01 8.7 9.01c3.81 0 6.2-1.46 7.45-4.02l-3.08-1.28c-.55 1.52-2.08 2.36-4.37 2.36-2.81 0-4.61-1.63-5.03-4.68h12.68c.08-.46.15-1.25.15-1.91m-27.49-8.49c-2.32 0-4.85 1.11-6 3.47-1.04-2.36-3.36-3.47-5.82-3.47-2.25 0-4.4 1.04-5.61 3.22l-.17-2.88h-3.29v17.33h3.71V245c0-3.88 2.43-5.41 4.51-5.41 2.04 0 3.57 1.14 3.57 3.99v10.64h3.71v-9.43c0-3.36 2.08-5.2 4.51-5.2 2.04 0 3.57 1.14 3.57 3.99v10.64h3.71v-11.23c.02-4.4-3.07-6.44-6.4-6.44m-26.3 0c-2.67 0-4.51 1.18-5.44 3.43l-.35-3.08h-3.15v17.33h3.71v-9.18c0-3.53 2.29-5.2 4.37-5.2.94 0 1.7.17 2.18.45l.59-3.4c-.49-.25-1.22-.35-1.91-.35m-23.43 15.21c-1.63 0-2.6-.69-2.6-1.98 0-1.39 1.18-2.18 3.54-2.63l3.78-.76v2.08c0 2.08-2.4 3.29-4.72 3.29m9.71.04c-.94 0-1.28-.42-1.28-1.28v-7.83c0-4.16-2.98-6.13-7.31-6.13-3.78 0-6.45 1.77-7.28 4.51l2.88 1.52c.73-2.18 2.32-3.12 4.47-3.12 2.25 0 3.53 1.35 3.53 3.43v.9l-4.4.8c-4.54.8-6.76 2.77-6.76 5.44 0 3.02 2.39 4.54 5.65 4.54 2.56 0 4.78-.94 5.86-2.6.38 1.91 1.66 2.6 3.54 2.6.87 0 1.59-.17 2.15-.42l.24-2.5c-.39.1-.84.14-1.29.14m-27.66-12.31c2.6 0 4.23 1.7 4.57 4.61h-9.32c.38-2.98 2.01-4.61 4.75-4.61m8.04 5.55c0-5.02-2.84-8.49-8.04-8.49-5.41 0-8.46 3.36-8.46 9.01s3.22 9.01 8.7 9.01c3.81 0 6.2-1.46 7.45-4.02l-3.08-1.28c-.55 1.52-2.08 2.36-4.37 2.36-2.81 0-4.61-1.63-5.02-4.68h12.68c.07-.46.14-1.25.14-1.91m-24.95-8.15v9.36c0 3.67-2.22 5.27-4.85 5.27-2.18 0-3.57-.97-3.57-4.19V236.9h-3.71v11.4c0 4.51 2.77 6.27 6.24 6.27 2.81 0 4.96-.97 6.13-3.15l.17 2.81h3.29V236.9h-3.7zm-26.24 14.66c-2.98 0-4.78-2.22-4.78-6s1.8-6.03 4.78-6.03c2.91 0 4.78 2.18 4.78 5.82v.42c.01 3.61-1.86 5.79-4.78 5.79m5.24-14.66-.17 3.19c-1-2.11-3.12-3.54-5.89-3.54-4.71 0-7.66 3.33-7.66 8.98 0 5.68 2.98 9.05 7.69 9.05 2.56 0 4.54-1.25 5.58-3.15v10.09h3.71V236.9h-3.26zm-26.2 2.57c3.12 0 4.92 2.18 4.92 6.1 0 3.92-1.8 6.1-4.92 6.1s-4.89-2.18-4.89-6.1c0-3.92 1.77-6.1 4.89-6.1m0-2.91c-5.41 0-8.63 3.36-8.63 9.01s3.22 9.01 8.63 9.01 8.63-3.36 8.63-9.01-3.23-9.01-8.63-9.01m-14.84-7.45h-3.71v20.59c0 3.36 1.42 4.89 4.51 4.89 1 0 2.11-.21 2.88-.59l.42-2.98c-.9.35-1.42.45-2.29.45-1.39 0-1.8-.59-1.8-2.29V229.1zm-16.91 22.49c-2.91 0-4.78-2.18-4.78-5.82v-.42c0-3.6 1.87-5.79 4.78-5.79 2.98 0 4.78 2.22 4.78 6 0 3.77-1.8 6.03-4.78 6.03m.8-15.04c-2.56 0-4.54 1.25-5.58 3.15v-10.6h-3.71v25.13h3.26l.17-3.19c1.01 2.11 3.12 3.53 5.89 3.53 4.71 0 7.66-3.33 7.66-8.98 0-5.68-2.98-9.04-7.69-9.04m-21.35 18.02c4.78 0 7.56-2.18 7.56-5.23 0-2.88-1.77-4.37-6.72-5.27-3.26-.59-4.26-1.25-4.26-2.5 0-1.07 1.46-2.11 3.6-2.11 2.25 0 3.74.87 4.61 2.95l2.63-1.94c-1.25-2.67-3.43-3.92-7.28-3.92-4.64 0-7.28 2.56-7.28 5.37 0 2.91 1.8 4.4 6.97 5.37 3.02.59 4.02 1.21 4.02 2.29 0 1.18-1.25 2.08-3.71 2.08-2.43 0-4.47-.8-5.37-2.88l-2.5 2.15c1.46 2.53 4.37 3.64 7.73 3.64m-18.96-15.08c2.6 0 4.23 1.7 4.57 4.61h-9.32c.39-2.98 2.02-4.61 4.75-4.61m8.04 5.55c0-5.02-2.84-8.49-8.04-8.49-5.41 0-8.46 3.36-8.46 9.01s3.22 9.01 8.7 9.01c3.81 0 6.2-1.46 7.45-4.02l-3.08-1.28c-.55 1.52-2.08 2.36-4.37 2.36-2.81 0-4.61-1.63-5.02-4.68h12.68c.08-.46.14-1.25.14-1.91m-29.73 6.55c-2.98 0-4.78-2.25-4.78-6.03 0-3.78 1.8-6 4.78-6 2.91 0 4.78 2.18 4.78 5.79v.42c0 3.63-1.87 5.82-4.78 5.82m4.78-22.49v10.6c-1.04-1.91-3.02-3.15-5.58-3.15-4.71 0-7.69 3.36-7.69 9.05 0 5.65 2.95 8.98 7.66 8.98 2.74 0 4.85-1.42 5.86-3.47l.21 3.12h3.26V229.1h-3.72zM238.2 210.17c-1.63 0-2.6-.69-2.6-1.98 0-1.39 1.18-2.18 3.53-2.63l3.78-.76v2.08c0 2.08-2.39 3.29-4.71 3.29m9.7.04c-.94 0-1.28-.42-1.28-1.28v-7.83c0-4.16-2.98-6.13-7.31-6.13-3.78 0-6.45 1.77-7.28 4.51l2.88 1.53c.73-2.18 2.32-3.12 4.47-3.12 2.25 0 3.54 1.35 3.54 3.43v.9l-4.4.8c-4.54.8-6.76 2.77-6.76 5.44 0 3.02 2.39 4.54 5.65 4.54 2.56 0 4.78-.94 5.86-2.6.38 1.91 1.66 2.6 3.53 2.6.87 0 1.59-.17 2.15-.42l.24-2.5c-.39.09-.84.13-1.29.13m-19.99-15.25c-2.67 0-4.51 1.18-5.44 3.43l-.35-3.08h-3.15v17.33h3.71v-9.18c0-3.53 2.29-5.2 4.37-5.2.94 0 1.7.17 2.18.45l.59-3.4c-.49-.25-1.22-.35-1.91-.35m-23.43 15.21c-1.63 0-2.6-.69-2.6-1.98 0-1.39 1.18-2.18 3.53-2.63l3.78-.76v2.08c0 2.08-2.39 3.29-4.71 3.29m9.7.04c-.94 0-1.28-.42-1.28-1.28v-7.83c0-4.16-2.98-6.13-7.31-6.13-3.78 0-6.45 1.77-7.28 4.51l2.88 1.53c.73-2.18 2.32-3.12 4.47-3.12 2.25 0 3.53 1.35 3.53 3.43v.9l-4.4.8c-4.54.8-6.76 2.77-6.76 5.44 0 3.02 2.39 4.54 5.65 4.54 2.56 0 4.78-.94 5.86-2.6.38 1.91 1.66 2.6 3.53 2.6.87 0 1.59-.17 2.15-.42l.24-2.5c-.38.09-.83.13-1.28.13m-28.24-.25c-2.91 0-4.78-2.18-4.78-5.79v-.42c0-3.64 1.87-5.82 4.78-5.82 2.98 0 4.78 2.25 4.78 6.03 0 3.79-1.8 6-4.78 6m.83-15c-2.77 0-4.89 1.42-5.89 3.53l-.17-3.19h-3.26v24.61h3.71v-10.09c1.04 1.91 3.02 3.15 5.58 3.15 4.71 0 7.69-3.36 7.69-9.05 0-5.63-2.95-8.96-7.66-8.96M317.56 156.28c3.12 0 4.92 2.18 4.92 6.1 0 3.92-1.8 6.1-4.92 6.1s-4.89-2.18-4.89-6.1c.01-3.92 1.77-6.1 4.89-6.1m0-2.91c-5.41 0-8.63 3.36-8.63 9.01s3.22 9.01 8.63 9.01 8.63-3.36 8.63-9.01-3.22-9.01-8.63-9.01m-26.79 17.68h14.9v-2.91h-7.49l-3.29.07 2.08-2.15 8.39-9.77v-2.56h-14.52v2.91h7.45l2.98-.07-2.08 2.15-8.42 9.77v2.56zm-13.38-2.46c-1.63 0-2.6-.69-2.6-1.98 0-1.39 1.18-2.18 3.53-2.63l3.78-.76v2.08c.01 2.07-2.38 3.29-4.71 3.29m9.71.03c-.94 0-1.28-.42-1.28-1.28v-7.83c0-4.16-2.98-6.13-7.31-6.13-3.78 0-6.45 1.77-7.28 4.51l2.88 1.52c.73-2.18 2.32-3.12 4.47-3.12 2.25 0 3.53 1.35 3.53 3.43v.9l-4.4.8c-4.54.8-6.76 2.77-6.76 5.44 0 3.02 2.39 4.54 5.65 4.54 2.56 0 4.78-.94 5.86-2.6.38 1.91 1.66 2.6 3.53 2.6.87 0 1.59-.17 2.15-.42l.24-2.5c-.38.11-.83.14-1.28.14m-20-15.25c-2.67 0-4.51 1.18-5.44 3.43l-.35-3.08h-3.15v17.33h3.71v-9.18c0-3.53 2.29-5.2 4.37-5.2.94 0 1.7.17 2.18.45l.59-3.4c-.49-.25-1.22-.35-1.91-.35m-22.25 15.04c-2.91 0-4.78-2.18-4.78-5.82v-.42c0-3.6 1.87-5.79 4.78-5.79 2.98 0 4.78 2.22 4.78 6s-1.8 6.03-4.78 6.03m.8-15.04c-2.56 0-4.54 1.25-5.58 3.15v-10.6h-3.71v25.13h3.26l.17-3.19c1.01 2.11 3.12 3.54 5.89 3.54 4.71 0 7.66-3.33 7.66-8.98 0-5.69-2.98-9.05-7.69-9.05m-26.76-7.45h-3.71v20.59c0 3.36 1.42 4.89 4.51 4.89 1 0 2.11-.21 2.88-.59l.42-2.98c-.9.35-1.42.45-2.29.45-1.39 0-1.8-.59-1.8-2.29v-20.07zm-16.28 10.4c2.6 0 4.23 1.7 4.57 4.61h-9.32c.38-2.98 2.01-4.61 4.75-4.61m8.04 5.54c0-5.03-2.84-8.49-8.04-8.49-5.41 0-8.46 3.36-8.46 9.01s3.22 9.01 8.7 9.01c3.81 0 6.2-1.46 7.45-4.02l-3.08-1.28c-.55 1.52-2.08 2.36-4.37 2.36-2.81 0-4.61-1.63-5.02-4.68h12.68c.07-.45.14-1.25.14-1.91m-40.59 6.73c-1.63 0-2.6-.69-2.6-1.98 0-1.39 1.18-2.18 3.53-2.63l3.78-.76v2.08c.01 2.07-2.38 3.29-4.71 3.29m9.71.03c-.94 0-1.28-.42-1.28-1.28v-7.83c0-4.16-2.98-6.13-7.31-6.13-3.78 0-6.45 1.77-7.28 4.51l2.88 1.52c.73-2.18 2.32-3.12 4.47-3.12 2.25 0 3.54 1.35 3.54 3.43v.9l-4.4.8c-4.54.8-6.76 2.77-6.76 5.44 0 3.02 2.39 4.54 5.65 4.54 2.56 0 4.78-.94 5.86-2.6.38 1.91 1.66 2.6 3.53 2.6.87 0 1.59-.17 2.15-.42l.24-2.5c-.39.11-.84.14-1.29.14m-26.96-15.25c-5.41 0-8.63 3.36-8.63 9.01s3.22 9.01 8.7 9.01c4.02 0 6.62-2.01 7.59-5.16l-3.4-1.14c-.45 2.15-1.87 3.36-4.26 3.36-3.05 0-4.89-2.11-4.89-6.03 0-3.92 1.8-6.1 4.89-6.1 2.15 0 3.47 1.14 4.05 3.29l3.47-1.39c-1.08-2.84-3.33-4.85-7.52-4.85m-21.01 2.91c3.12 0 4.92 2.18 4.92 6.1 0 3.92-1.8 6.1-4.92 6.1s-4.89-2.18-4.89-6.1c.01-3.92 1.77-6.1 4.89-6.1m0-2.91c-5.41 0-8.63 3.36-8.63 9.01s3.22 9.01 8.63 9.01 8.63-3.36 8.63-9.01-3.22-9.01-8.63-9.01m-7.9-5.2h-19.37v3.19h7.83v19.69h3.71v-19.69h7.83v-3.19zm-25.4 28.42h3.88v-9.15l-.48-6.44h-2.91l-.49 6.45v9.14zm1.94-18.3c1.56 0 2.56-.97 2.56-2.46s-1.01-2.43-2.56-2.43c-1.59 0-2.6.94-2.6 2.43 0 1.49 1.01 2.46 2.6 2.46" style="clip-path:url(#SVGID_00000016766411337827892290000017464562010364283819_);fill:#fff"/></g></svg>