<svg xmlns="http://www.w3.org/2000/svg" xmlns:xlink="http://www.w3.org/1999/xlink" xml:space="preserve" style="enable-background:new 0 0 996 159" viewBox="0 0 996 159"><defs><path id="a" d="M.17.3h995.67v159.41H.17z"/></defs><clipPath id="b"><use xlink:href="#a" style="overflow:visible"/></clipPath><g style="clip-path:url(#b)"><defs><path id="c" d="M.17.3h995.67v159.41H.17z"/></defs><clipPath id="d"><use xlink:href="#c" style="overflow:visible"/></clipPath><g style="opacity:.66;clip-path:url(#d)"><defs><path id="e" d="M-8.83-6.7h1013.67v167.41H-8.83z"/></defs><clipPath id="f"><use xlink:href="#e" style="overflow:visible"/></clipPath><path d="M17.17.3c-9.39 0-17 7.61-17 17v125.4c0 9.39 7.61 17 17 17h961.67c9.39 0 17-7.61 17-17V17.3c0-9.39-7.61-17-17-17H17.17z" style="clip-path:url(#f);fill:#008196"/></g><path d="M662.29 99.91c-3.55 0-5.66-1.37-5.66-3.98 0-2.93 2.8-4.73 8.28-5.72l6.97-1.31v4.29c0 4.11-4.61 6.72-9.59 6.72m16.93.13c-1.74 0-2.36-.75-2.36-2.24V82.49c0-7.22-5.16-10.58-12.26-10.58-6.04 0-10.95 2.99-12.57 7.59l3.67 2.68c1.68-3.92 4.79-5.91 8.9-5.91 4.67 0 7.28 2.74 7.28 6.85v1.74l-8.28 1.37c-8.03 1.37-12.13 5.04-12.13 9.71 0 5.6 4.73 8.34 10.58 8.34 3.98 0 8.03-1.68 10.02-4.6.56 3.48 2.55 4.6 5.6 4.6 1.55 0 2.86-.31 3.73-.62l.31-3.92c-.75.17-1.68.3-2.49.3m-34.29-2.74c-1.43 1.43-3.05 2.3-5.29 2.3-2.74 0-4.67-1.49-4.67-4.54V76.83h11.51v-4.29h-11.51V63.7L630 65.07v7.47h-6.22v4.29H630v19.1c.06 6.04 4.04 8.34 8.65 8.34 3.42 0 6.1-1.06 8.03-2.8l-1.75-4.17zm-39.51 6.97c7.96 0 13.01-3.8 13.01-9.21 0-5.1-3.11-7.72-11.82-9.15-6.35-1.06-8.4-2.43-8.4-5.1 0-2.3 3.11-4.54 7.28-4.54 3.92 0 6.72 1.49 8.09 5.6l4.23-2.49c-1.74-5.1-5.66-7.47-12.32-7.47-7.59 0-12.26 4.29-12.26 9.33 0 5.23 3.24 7.65 12.07 9.27 6.22 1.12 8.15 2.49 8.15 4.79 0 2.55-2.43 4.6-7.53 4.6-4.48 0-8.34-1.68-9.83-5.48l-4.04 2.8c2.36 4.81 7.64 7.05 13.37 7.05m-33.98-28c5.29 0 8.46 3.55 9.15 9.27h-18.86c.75-5.85 4.18-9.27 9.71-9.27m13.94 10.2c0-8.03-4.92-14.56-13.94-14.56-9.4 0-14.69 6.1-14.69 16.18s5.66 16.18 15.06 16.18c6.72 0 10.58-2.55 12.94-6.78l-4.17-2.18c-1.12 2.99-4.23 4.6-8.77 4.6-5.72 0-9.52-3.67-10.14-9.96h23.46c.13-.86.25-2.05.25-3.48m-38.27-13.94h-4.98v31.11h4.98V72.53zm-2.49-5.97c2.24 0 3.73-1.49 3.73-3.73s-1.49-3.73-3.73-3.73-3.73 1.49-3.73 3.73 1.49 3.73 3.73 3.73m-24.7 37.71c7.97 0 13.01-3.8 13.01-9.21 0-5.1-3.11-7.72-11.82-9.15-6.35-1.06-8.4-2.43-8.4-5.1 0-2.3 3.11-4.54 7.28-4.54 3.92 0 6.72 1.49 8.09 5.6l4.23-2.49c-1.74-5.1-5.66-7.47-12.32-7.47-7.59 0-12.26 4.29-12.26 9.33 0 5.23 3.24 7.65 12.07 9.27 6.22 1.12 8.15 2.49 8.15 4.79 0 2.55-2.43 4.6-7.53 4.6-4.48 0-8.34-1.68-9.83-5.48l-4.05 2.8c2.37 4.81 7.66 7.05 13.38 7.05m-56.5-28.07c6.29 0 10.08 4.48 10.08 11.88s-3.8 11.89-10.08 11.89-10.08-4.48-10.08-11.89 3.8-11.88 10.08-11.88m0-4.29c-9.4 0-15.06 6.1-15.06 16.18s5.66 16.18 15.06 16.18 15.06-6.1 15.06-16.18-5.66-16.18-15.06-16.18m-39.45 28c-6.1 0-9.77-4.6-9.77-11.82 0-7.22 3.67-11.82 9.77-11.82 5.91 0 9.77 4.42 9.77 11.45v.75c0 7.02-3.86 11.44-9.77 11.44m9.77-41.69v19.17c-1.93-3.24-5.66-5.48-10.33-5.48-8.65 0-14.19 6.04-14.19 16.18s5.54 16.18 14.19 16.18c4.92 0 8.84-2.49 10.64-6.04l.31 5.41h4.36V58.22h-4.98zM386.39 76.2c6.28 0 10.08 4.48 10.08 11.88s-3.8 11.89-10.08 11.89-10.08-4.48-10.08-11.89 3.79-11.88 10.08-11.88m0-4.29c-9.4 0-15.06 6.1-15.06 16.18s5.66 16.18 15.06 16.18 15.06-6.1 15.06-16.18-5.67-16.18-15.06-16.18m-25.08-9.33h-7.65l-8.96 25.01-3.17 10.21h-.12l-3.11-10.27-9.02-24.95h-7.65v41.07h4.73V77.82l-.56-10.83h.06l13.5 36.65h4.23l13.5-36.65h.06l-.56 10.83v25.82h4.73V62.58z" style="clip-path:url(#d);fill:#fff"/></g></svg>