<svg xmlns="http://www.w3.org/2000/svg" xmlns:xlink="http://www.w3.org/1999/xlink" xml:space="preserve" style="enable-background:new 0 0 996 159" viewBox="0 0 996 159"><defs><path id="a" d="M-.3-.15h995.93v159.41H-.3z"/></defs><clipPath id="b"><use xlink:href="#a" style="overflow:visible"/></clipPath><g style="clip-path:url(#b)"><defs><path id="c" d="M-.3-.15h995.93v159.41H-.3z"/></defs><clipPath id="d"><use xlink:href="#c" style="overflow:visible"/></clipPath><g style="opacity:.66;clip-path:url(#d)"><defs><path id="e" d="M-9.3-7.15h1013.93v167.41H-9.3z"/></defs><clipPath id="f"><use xlink:href="#e" style="overflow:visible"/></clipPath><path d="M16.7-.15c-9.39 0-17 7.61-17 17v125.41c0 9.39 7.61 17 17 17h961.93c9.39 0 17-7.61 17-17V16.85c0-9.39-7.61-17-17-17H16.7z" style="clip-path:url(#f);fill:#008196"/></g><path d="M679.56 94.34c-3.55 0-5.66-1.37-5.66-3.98 0-2.93 2.8-4.73 8.28-5.72l6.97-1.31v4.29c0 4.11-4.61 6.72-9.59 6.72m16.93.12c-1.74 0-2.36-.75-2.36-2.24v-15.3c0-7.22-5.16-10.58-12.26-10.58-6.04 0-10.95 2.99-12.57 7.59l3.67 2.68c1.68-3.92 4.79-5.91 8.9-5.91 4.67 0 7.28 2.74 7.28 6.85v1.74l-8.28 1.37c-8.03 1.37-12.13 5.04-12.13 9.71 0 5.6 4.73 8.34 10.58 8.34 3.98 0 8.03-1.68 10.02-4.6.56 3.48 2.55 4.6 5.6 4.6 1.55 0 2.86-.31 3.73-.62l.31-3.92c-.75.17-1.68.29-2.49.29m-35.34-28.12c-4.85 0-8.21 1.93-9.96 5.73l-.68-5.1h-4.05v31.11h4.98v-16.8c0-6.97 4.48-10.27 8.21-10.27 1.62 0 2.99.31 3.92.81l1-4.85c-.94-.51-2.37-.63-3.42-.63m-31.24.62v16.93c0 7.34-4.67 10.45-9.96 10.45-4.48 0-7.34-1.93-7.34-8.34V66.96h-4.98v20.35c0 8.21 5.29 11.39 11.45 11.39 4.98 0 8.96-1.62 11.14-5.35l.31 4.73h4.35V66.96h-4.97zm-30.74 24.77c-1.43 1.43-3.05 2.3-5.29 2.3-2.74 0-4.67-1.49-4.67-4.54V71.25h11.51v-4.29h-11.51v-8.84l-4.98 1.37v7.47h-6.22v4.29h6.22v19.1c.06 6.04 4.04 8.34 8.65 8.34 3.42 0 6.1-1.06 8.03-2.8l-1.74-4.16zM559.9 66.34c-9.4 0-15.06 6.1-15.06 16.18S550.5 98.7 559.9 98.7c6.6 0 11.08-3.42 13.19-9.15l-4.61-1.62c-.93 4.11-3.86 6.41-8.71 6.41-6.22 0-9.96-4.42-9.96-11.82s3.73-11.82 9.96-11.82c4.29 0 6.97 2.18 8.28 6.16l4.73-2.24c-2.3-5.11-6.47-8.28-12.88-8.28m-36.52 4.35c5.29 0 8.46 3.55 9.15 9.27h-18.85c.74-5.84 4.16-9.27 9.7-9.27m13.94 10.21c0-8.03-4.92-14.56-13.94-14.56-9.4 0-14.69 6.1-14.69 16.18s5.66 16.18 15.06 16.18c6.72 0 10.58-2.55 12.94-6.78l-4.17-2.18c-1.12 2.99-4.23 4.6-8.77 4.6-5.73 0-9.52-3.67-10.14-9.96h23.46c.12-.87.25-2.05.25-3.48m-41.01-28.25h-4.98v37.71c0 5.66 2.43 8.34 7.47 8.34 1.62 0 3.3-.31 4.61-.87l.81-4.79c-1.8.69-2.86.87-4.54.87-2.55 0-3.36-1-3.36-4.17V52.65zm-50.65 17.98c6.29 0 10.08 4.48 10.08 11.88s-3.8 11.89-10.08 11.89-10.08-4.48-10.08-11.89 3.79-11.88 10.08-11.88m0-4.29c-9.4 0-15.06 6.1-15.06 16.18s5.66 16.18 15.06 16.18 15.06-6.1 15.06-16.18-5.67-16.18-15.06-16.18m-39.45 28c-6.1 0-9.77-4.6-9.77-11.82 0-7.22 3.67-11.82 9.77-11.82 5.91 0 9.77 4.42 9.77 11.45v.75c-.01 7.02-3.86 11.44-9.77 11.44m9.76-41.69v19.17c-1.93-3.24-5.66-5.48-10.33-5.48-8.65 0-14.19 6.04-14.19 16.18S397 98.7 405.65 98.7c4.92 0 8.84-2.49 10.64-6.04l.31 5.41h4.36V52.65h-4.99zm-47.35 17.98c6.28 0 10.08 4.48 10.08 11.88s-3.8 11.89-10.08 11.89-10.08-4.48-10.08-11.89 3.8-11.88 10.08-11.88m0-4.29c-9.4 0-15.06 6.1-15.06 16.18s5.66 16.18 15.06 16.18 15.06-6.1 15.06-16.18-5.66-16.18-15.06-16.18M343.54 57h-7.65l-8.96 25.01-3.17 10.21h-.12l-3.11-10.27L311.5 57h-7.65v41.07h4.73V72.25l-.56-10.83h.06l13.5 36.65h4.23l13.5-36.65h.06l-.56 10.83v25.82h4.73V57z" style="clip-path:url(#d);fill:#fff"/></g></svg>