<svg xmlns="http://www.w3.org/2000/svg" xmlns:xlink="http://www.w3.org/1999/xlink" xml:space="preserve" id="Capa_1" x="0" y="0" style="enable-background:new 0 0 422 416" version="1.1" viewBox="0 0 422 416"><style>.st2{clip-path:url(#SVGID_6_);fill:none;stroke:#008196;stroke-width:2.683}</style><defs><path id="SVGID_1_" d="M53.85 52.59h315.62v314.15H53.85z"/></defs><clipPath id="SVGID_2_"><use xlink:href="#SVGID_1_" style="overflow:visible"/></clipPath><g style="clip-path:url(#SVGID_2_)"><defs><path id="SVGID_3_" d="M53.85 52.59h315.62v314.15H53.85z"/></defs><clipPath id="SVGID_4_"><use xlink:href="#SVGID_3_" style="overflow:visible"/></clipPath><g style="opacity:.66;clip-path:url(#SVGID_4_)"><defs><path id="SVGID_5_" d="M36.85 39.59h349.62v328.15H36.85z"/></defs><clipPath id="SVGID_6_"><use xlink:href="#SVGID_5_" style="overflow:visible"/></clipPath><path d="M305.56 330.65s11.67 16.96-27.33 26.7c-39 9.73-77.43 8.62-100.2 6.95-22.77-1.67-41.39-6.97-49.93-18.92" class="st2"/><path d="M348.57 148.96s-2.7-2.46-5.99-2.87c-3.28-.41-.3.3-.3.3s1.71-7.99 2.28-11.27c.57-3.28.43-4 4.85-9.99s9.99-15.69 12.56-18.55c2.57-2.85 6.14-5.42 5.85-7.85-.29-2.42-4.42-2.42-6.71-2.85-2.28-.43-11.99-.86-13.98-1.57-2-.71-1.43-.57-4.85.29-3.43.86-16.69 3.28-19.55 4.42h-8.28m-116.28 49.37s1.14-8.13-.86-9.7c-2-1.57-3.42-1.14-6.28-.86-2.85.29-7.13.43-11.41.57-4.28.14-14.98.57-21.69 0-6.71-.57-16.12-.86-20.69-1.57s-15.41-5.85-18.69-7.13c-3.28-1.28-8.7-3.57-8.7-3.57s.29 4.85 1 9.27 2.71 13.41 2.28 15.55c-.43 2.14 1.57 14.13 2.43 16.12.86 2 3.42 8.28 2.57 12.56s-1.43 7.28-.71 8.99c.71 1.71 3 3.99-.14 8.27-3.14 4.28-5.14 6.56-4.99 8.42.14 1.86.71 5.42.71 5.42m91.17-77.46s-2.43-3.14-7.71-2.28c-5.28.86-18.12 3.14-19.83 3-1.71-.14-4.99-1.57-21.12 1 0 0-5.14.71-9.56-.29-4.42-1-8.42-.86-12.56.14 0 0-3.99-3.57-8.56-5.71s-8.99-4.14-8.99-4.14-5.28-3.71-9.85-3.43c-4.57.29-3.57 1.71-3.57 1.71s1.71 5.85 2.14 8.28c.43 2.43.71 14.27 1.28 17.98.57 3.71 3.28 24.97 3.28 31.1v19.83s-2.14 5.28-2 5.99c.14.71 1.14 1.71 1.57 2.43.43.71 4 2.85 5.71 2.43 1.71-.43 9.56-1.71 16.27-1.71 6.71 0 22.4 1.14 32.96 1.71 10.56.57 13.27.57 17.12 1.29 3.85.71 7.85.29 7.85.29l1.14-1.71m36.68-141.26s3-9.27 4.57-12.13c1.57-2.85 3.43-5.28 9.42-2 0 0 11.27-.43 15.12.29 3.85.71 6.71 1.43 6.71 1.43s5.71-.71 7.42.86c0 0 8.28-1.28 17.27-.14 0 0 12.56-1.57 16.41-.86 3.85.71 5.57-.14 6.56 1.85 1 2 1.71 3.71.43 9.13-1.28 5.42-.57 12.56-1.28 15.55-.71 3-3.14 10.13-3.57 14.12-.43 4 .86 6.99-1.86 9.27-2.71 2.28-5.57 2-9.85-.57 0 0-6.71-2.28-12.7-2.43-5.99-.14-20.26-.86-28.11-1-7.85-.14-18.41-1.57-23.4-.86-4.99.71-9.56 2.14-10.13-2.43s1.57-12.84 2.14-14.7c.57-1.83 4.85-15.38 4.85-15.38zm83.47.28s1.71 1.57 1.14 6.28c-.57 4.71-1.14 9.85-2.14 13.84-1 3.99-3.71 8.7-3.71 8.7m5.78-32.57c3.58.48 4.92 1.47 4.92 1.47 3.28 1.43 5.42 5.42 4.28 13.41-1.14 7.99-1 14.55-2.43 15.84-1.4 1.26-5.4 2.79-9.6 2.85h-.25l-2.7-.1m17.55-.9s10.7-.71 13.13-1.14c2.43-.43 11.27-.57 11.27-.57s8.7 1.43 10.27 1.86c1.57.43 4.57.43 3.28 2-1.29 1.57-7.28 8.27-9.56 10.13-2.28 1.85-8.56 11.84-8.56 11.84s-3.85 8.42-4.99 10.84c-1.14 2.43-2 10.7-2 10.7M220 91.03c-1.14.14-6.71 12.13-7.42 17.12 0 0-3.99 6.28-7.42 20.55 0 0-3.57 11.27-4.85 13.7-1.28 2.43-4.42 16.27-5.28 20.12-.86 3.85-3.28 11.99-4.42 17.12-1.14 5.14-5.14 22.12-6.14 23.97-1 1.85 3.42 5.99 3.42 5.99s1.14 1.85 4.57 2c3.43.14 9.27.86 11.99 1.71 2.71.86 9.13 3.42 9.13 3.42l1.85.43m5.95 11.75s-3.14.19-8.66.1m126.71-73.06s2.85-4.76 3.9-6.66c1.05-1.9 1.9-2.47-6.28-3.8-8.18-1.33-24.16-2.28-31.68.29-7.51 2.57-9.23 4.09-12.08 5.9-2.85 1.81-8.47 1.14-10.18.95-1.71-.19-9.61 2.19-12.65.38-3.04-1.81-15.98-5.8-18.64-6.18-2.66-.38-5.52.48-7.8 5.23-2.28 4.76-7.04 12.75-9.51 17.88-2.47 5.14-8.75 23.11-10.75 27.2s-8.85 20.35-9.23 22.45c-.38 2.09-4.76 4.28-5.52 5.23-.76.95-2.19 3.81-.09 4.38 2.09.57 5.14-.1 6.28-2.09 1.14-2 10.27-17.41 12.08-20.54 1.81-3.14 10.18-24.92 10.27-25.21.1-.29 9.51-18.26 10.56-19.88 1.05-1.62 2.09-6.37 4.19-7.99 2.09-1.62 6.09 1.62 8.46 2 2.38.38 8.94 3.33 14.08 1.81 5.14-1.52 9.04.48 9.04.48s5.8 3.23 10.46-1.9c4.66-5.14 13.6-4.76 13.6-4.76s12.27-1.62 17.12-1.62c4.85 0 7.04-1.33 8.56 0 1.52 1.33 1.33 1.9.47 3.71-.86 1.81-1.81 5.04-1.81 5.04m-219.81 52.4s-17.5.95-28.16 3.23c-10.65 2.28-19.97 5.9-21.31 10.65-1.33 4.76 1.52 30.63 2.09 39.76.57 9.13 1.33 24.16 1.71 34.62.38 10.46 2.24 25.11 2.24 25.11m281.52-171.06s-7.99 2.57-17.69 4.85c-9.7 2.28-44.52 10.56-56.36 13.41-11.84 2.85-29.11 2.85-42.09 25.68-12.98 22.83-20.12 58.21-24.54 75.19-4.42 16.98-12.99 70.05-13.84 78.19-.86 8.13 2 10.99 2 10.99m150.23-212.02s8.28-1.28 10.13 3.71c1.86 4.99 3 17.83.57 57.07s-3.57 62.49-4.85 78.76c-1.28 16.26-.71 19.12-6.14 21.97-5.42 2.85-11.7 7.56-28.96 13.55-17.26 5.99-68.77 26.54-86.32 31.1-17.55 4.57-23.97 7.7-26.25 8.13-2.28.43-4.85-.57-6.28-1.28-1.43-.71-2.14-1-2.14-1s-2.14.57-3.42.29c-1.29-.29-9.7-3.99-13.84-4.85-4.14-.86-27.11-5.99-37.95-8.99-10.84-3-38.67-11.13-46.8-14.27-8.13-3.14-20.4-6.56-23.4-7.85-3-1.28-3.57-1.57-3.57-1.57s-3.14 2.28-5.28 2.28-2.28-1.14-4.14-1.71c-1.85-.57-3.28-1.86-3.14-5.42.14-3.57-1.43-18.12-1.28-28.54.14-10.42 2-53.79 3.42-73.62 1.43-19.83 3.85-41.95 11.42-53.08 7.56-11.13 18.85-15.84 35.26-17.98M55.5 290.35c.14-10.41 2-53.79 3.42-73.62 1.43-19.83 3.85-41.95 11.42-53.08 7.09-10.43 20.32-15.6 35.46-17.97-.36-5.02-.6-12.54-.94-14.42-.43-2.43-2.14-8.28-2.14-8.28s-1-1.43 3.57-1.71c4.57-.29 9.85 3.43 9.85 3.43s4.42 2 8.99 4.14c4.57 2.14 8.56 5.71 8.56 5.71 4.14-1 8.13-1.14 12.56-.14 4.42 1 9.56.29 9.56.29 16.12-2.57 19.4-1.14 21.12-1 1.71.14 14.55-2.14 19.83-3 4.12-.67 6.5 1.1 7.35 1.9.78-2.35 1.36-4.19 1.36-4.19 3.42-14.27 7.42-20.54 7.42-20.54.71-4.99 6.28-16.98 7.42-17.12.07-.01.13-.01.19 0 .51-2.61 1.11-4.85 1.38-5.7.57-1.86 4.85-15.41 4.85-15.41s3-9.27 4.57-12.13c1.57-2.85 3.43-5.28 9.42-2 0 0 11.27-.43 15.12.29 3.85.71 6.71 1.43 6.71 1.43s5.71-.71 7.42.86c0 0 8.28-1.28 17.27-.14 0 0 12.56-1.57 16.41-.86 3.85.71 5.57-.14 6.56 1.85.89 1.78 1.55 3.35.77 7.52 2.11.3 4.09.69 5.22 1.18 3.28 1.43 5.42 5.42 4.28 13.41-1.14 7.99-1 14.55-2.43 15.84-.69.62-2.01 1.31-3.68 1.85h8.67c2.85-1.14 16.12-3.57 19.55-4.42 3.42-.86 2.85-1 4.85-.29 2 .71 11.7 1.14 13.98 1.57 2.28.43 6.42.43 6.71 2.85.29 2.43-3.28 4.99-5.85 7.85-2.57 2.85-8.13 12.56-12.56 18.55-4.42 5.99-4.28 6.71-4.85 9.99-.56 3.2-2.2 10.89-2.28 11.25 2.8.85 4.85 1.8 5.99 2.87 0 0 8.28-1.28 10.13 3.71 1.85 4.99 3 17.84.57 57.07-2.42 39.24-3.57 62.49-4.85 78.76-1.28 16.26-.71 19.12-6.14 21.97-5.42 2.85-11.7 7.56-28.96 13.55-17.26 5.99-68.77 26.54-86.32 31.1-17.55 4.57-23.97 7.7-26.25 8.13-2.28.43-4.85-.57-6.28-1.28-1.43-.71-2.14-1-2.14-1s-2.14.57-3.42.29c-1.29-.29-9.7-3.99-13.84-4.85-4.14-.86-27.11-5.99-37.95-8.99s-38.67-11.13-46.8-14.27-20.4-6.56-23.4-7.85c-3-1.28-3.57-1.57-3.57-1.57s-3.14 2.28-5.28 2.28-2.28-1.14-4.14-1.71c-1.85-.57-3.28-1.85-3.14-5.42.13-3.56-1.44-18.11-1.3-28.53z" class="st2"/></g></g></svg>