<svg xmlns="http://www.w3.org/2000/svg" id="Capa_1" data-name="Capa 1" viewBox="0 0 1125 1125"><defs><clipPath id="clippath"><path d="M175 181.66h776v772.37H175z" class="cls-3"/></clipPath><clipPath id="clippath-1"><path d="M175 181.66h776v772.37H175z" class="cls-3"/></clipPath><clipPath id="clippath-2"><path d="M158 168.66h810v786.37H158z" class="cls-3"/></clipPath><clipPath id="clippath-3"><path d="M704.34 620.1h76.91v66.91h-76.91z" class="cls-3"/></clipPath><style>.cls-2{stroke:#008196;stroke-width:3px}.cls-2,.cls-3{fill:none}.cls-8{opacity:.66}</style></defs><g style="clip-path:url(#clippath)"><g style="clip-path:url(#clippath-1)"><g class="cls-8" style="clip-path:url(#clippath-2)"><path d="M794.93 866.69s28.83 41.9-67.5 65.94-191.26 21.29-247.51 17.17c-56.25-4.12-102.24-17.21-123.33-46.74" class="cls-2"/><path d="M901.18 417.9s-6.68-6.08-14.79-7.09c-8.12-1.01-.75.75-.75.75s4.23-19.74 5.64-27.84c1.41-8.11 1.06-9.87 11.98-24.67 10.92-14.8 24.67-38.77 31.01-45.82 6.34-7.05 15.16-13.39 14.45-19.38-.71-5.99-10.93-5.99-16.57-7.05-5.64-1.06-29.6-2.11-34.54-3.88-4.93-1.76-3.52-1.41-11.98.71-8.46 2.11-41.23 8.1-48.28 10.92h-20.44M529.67 416.49s2.82-20.09-2.11-23.96c-4.94-3.88-8.46-2.82-15.51-2.12-7.05.71-17.62 1.06-28.19 1.41-10.57.35-37.01 1.41-53.57 0-16.57-1.41-39.83-2.11-51.1-3.88s-38.06-14.45-46.17-17.62c-8.11-3.17-21.5-8.81-21.5-8.81s.71 11.98 2.47 22.91c1.76 10.92 6.7 33.13 5.64 38.41-1.06 5.29 3.88 34.89 5.99 39.82 2.11 4.93 8.46 20.44 6.34 31.01-2.11 10.57-3.52 17.97-1.76 22.2s7.4 9.87-.35 20.44c-7.75 10.57-12.69 16.21-12.34 20.79.35 4.58 1.76 13.39 1.76 13.39m225.21-191.37s-5.99-7.75-19.03-5.64c-13.04 2.11-44.76 7.75-48.99 7.4-4.23-.35-12.33-3.88-52.16 2.47 0 0-12.69 1.76-23.61-.71-10.93-2.47-20.79-2.11-31.01.35 0 0-9.87-8.81-21.15-14.1-11.28-5.29-22.2-10.22-22.2-10.22s-13.04-9.16-24.32-8.46c-11.28.71-8.81 4.23-8.81 4.23s4.23 14.45 5.29 20.44c1.06 5.99 1.76 35.24 3.17 44.41 1.41 9.16 8.11 61.68 8.11 76.83v48.99s-5.29 13.04-4.93 14.8c.35 1.76 2.82 4.23 3.88 5.99 1.06 1.76 9.87 7.05 14.1 5.99 4.23-1.06 23.61-4.23 40.18-4.23s55.33 2.82 81.41 4.23c26.08 1.41 32.78 1.41 42.29 3.17 9.52 1.76 19.38.7 19.38.7l2.82-4.23m90.58-348.91s7.4-22.91 11.28-29.96c3.88-7.05 8.46-13.04 23.26-4.93 0 0 27.84-1.06 37.36.71s16.56 3.52 16.56 3.52 14.1-1.76 18.33 2.11c0 0 20.44-3.17 42.65-.35 0 0 31.01-3.88 40.53-2.11 9.52 1.76 13.75-.35 16.21 4.58 2.47 4.93 4.23 9.16 1.06 22.55-3.17 13.39-1.41 31.01-3.17 38.41-1.76 7.4-7.75 25.02-8.81 34.89-1.06 9.87 2.11 17.27-4.58 22.91-6.7 5.64-13.75 4.93-24.32-1.41 0 0-16.57-5.64-31.37-5.99-14.8-.35-50.05-2.11-69.43-2.47-19.38-.35-45.46-3.88-57.8-2.11-12.34 1.76-23.61 5.29-25.02-5.99s3.88-31.72 5.29-36.3c1.41-4.58 11.98-38.06 11.98-38.06Zm206.18.71s4.23 3.88 2.82 15.51c-1.41 11.63-2.82 24.32-5.29 34.19-2.47 9.87-9.16 21.5-9.16 21.5m14.27-80.46c8.83 1.19 12.16 3.63 12.16 3.63 8.11 3.52 13.39 13.39 10.57 33.13-2.82 19.74-2.47 35.95-5.99 39.12-3.45 3.11-13.35 6.9-23.7 7.05h-.61l-6.66-.24m43.32-2.23s26.43-1.76 32.43-2.82c5.99-1.06 27.84-1.41 27.84-1.41s21.5 3.52 25.38 4.58c3.88 1.06 11.28 1.06 8.11 4.93-3.17 3.88-17.97 20.44-23.61 25.02-5.64 4.58-21.15 29.25-21.15 29.25s-9.52 20.79-12.34 26.78c-2.82 5.99-4.93 26.43-4.93 26.43M583.64 274.77c-2.82.35-16.57 29.96-18.33 42.29 0 0-9.87 15.51-18.33 50.75 0 0-8.81 27.84-11.98 33.83-3.17 5.99-10.93 40.18-13.04 49.69-2.11 9.52-8.11 29.6-10.92 42.29-2.82 12.69-12.69 54.63-15.15 59.21-2.47 4.58 8.46 14.8 8.46 14.8s2.82 4.58 11.28 4.93c8.46.35 22.91 2.11 29.61 4.23 6.7 2.11 22.56 8.46 22.56 8.46l4.58 1.06m14.68 29.02s-7.75.47-21.38.24m312.97-180.44s7.05-11.75 9.63-16.45c2.59-4.7 4.7-6.11-15.51-9.4s-59.68-5.64-78.24.71-22.79 10.1-29.84 14.57c-7.05 4.46-20.91 2.82-25.14 2.35-4.23-.47-23.73 5.4-31.25.94-7.52-4.46-39.47-14.33-46.05-15.27-6.58-.94-13.63 1.18-19.27 12.92-5.64 11.75-17.39 31.48-23.5 44.17-6.11 12.69-21.62 57.09-26.55 67.2-4.93 10.1-21.85 50.28-22.79 55.45-.94 5.17-11.75 10.57-13.63 12.92-1.88 2.35-5.4 9.4-.24 10.81 5.17 1.41 12.69-.23 15.51-5.17 2.82-4.93 25.38-43 29.84-50.75 4.46-7.75 25.14-61.56 25.38-62.26.23-.7 23.5-45.11 26.08-49.11 2.58-3.99 5.17-15.74 10.34-19.74 5.17-3.99 15.04 3.99 20.91 4.93 5.87.94 22.09 8.22 34.77 4.46 12.69-3.76 22.32 1.17 22.32 1.17s14.33 7.99 25.85-4.7c11.51-12.69 33.6-11.75 33.6-11.75s30.31-3.99 42.29-3.99 17.39-3.29 21.15 0c3.76 3.29 3.29 4.7 1.17 9.16-2.11 4.46-4.46 12.45-4.46 12.45m-543 129.46s-43.23 2.35-69.55 7.99c-26.32 5.64-49.34 14.57-52.63 26.32-3.29 11.75 3.76 75.65 5.17 98.21 1.41 22.56 3.29 59.68 4.23 85.52s5.52 62.03 5.52 62.03m695.37-422.56s-19.74 6.34-43.7 11.98c-23.97 5.64-109.96 26.08-139.21 33.13-29.25 7.05-71.9 7.05-103.97 63.44-32.07 56.39-49.7 143.79-60.62 185.73-10.92 41.94-32.07 173.04-34.19 193.13-2.11 20.09 4.93 27.14 4.93 27.14m371.12-523.71s20.44-3.17 25.02 9.16c4.58 12.34 7.4 44.05 1.41 140.97s-8.81 154.37-11.98 194.54c-3.17 40.18-1.76 47.23-15.16 54.27-13.39 7.05-28.9 18.68-71.55 33.48-42.64 14.8-169.88 65.55-213.23 76.83-43.35 11.28-59.21 19.03-64.85 20.09-5.64 1.06-11.98-1.41-15.51-3.17-3.52-1.76-5.29-2.47-5.29-2.47s-5.29 1.41-8.46.71-23.97-9.87-34.19-11.98c-10.22-2.11-66.96-14.8-93.75-22.2-26.78-7.4-95.51-27.49-115.6-35.24-20.09-7.75-50.4-16.21-57.8-19.38-7.4-3.17-8.81-3.88-8.81-3.88s-7.75 5.64-13.04 5.64-5.64-2.82-10.22-4.23c-4.58-1.41-8.11-4.58-7.75-13.39.35-8.81-3.52-44.76-3.17-70.49.35-25.73 4.94-132.87 8.46-181.85 3.52-48.99 9.52-103.61 28.2-131.1 18.68-27.49 46.56-39.12 87.09-44.41m-123 356.66c.35-25.73 4.93-132.87 8.46-181.85 3.52-48.99 9.52-103.61 28.19-131.11 17.51-25.77 50.19-38.53 87.6-44.38-.89-12.41-1.49-30.98-2.31-35.62-1.06-5.99-5.29-20.44-5.29-20.44s-2.47-3.52 8.81-4.23 24.32 8.46 24.32 8.46 10.93 4.93 22.2 10.22c11.28 5.29 21.15 14.1 21.15 14.1 10.22-2.47 20.09-2.82 31.01-.35 10.92 2.47 23.61.7 23.61.7 39.83-6.34 47.93-2.82 52.16-2.47 4.23.35 35.95-5.29 48.99-7.4 10.19-1.65 16.06 2.71 18.14 4.7 1.92-5.8 3.35-10.34 3.35-10.34 8.46-35.24 18.33-50.75 18.33-50.75 1.76-12.34 15.51-41.94 18.33-42.29.17-.02.32-.02.47 0 1.27-6.44 2.75-11.97 3.4-14.09 1.41-4.58 11.98-38.06 11.98-38.06s7.4-22.91 11.28-29.96c3.88-7.05 8.46-13.04 23.26-4.93 0 0 27.84-1.06 37.36.71 9.52 1.76 16.57 3.52 16.57 3.52s14.1-1.76 18.33 2.11c0 0 20.44-3.17 42.65-.35 0 0 31.02-3.88 40.53-2.11 9.52 1.76 13.74-.35 16.21 4.58 2.2 4.41 3.83 8.27 1.9 18.58 5.21.74 10.11 1.7 12.9 2.92 8.11 3.53 13.39 13.39 10.57 33.13-2.82 19.74-2.47 35.95-5.99 39.12-1.7 1.53-4.98 3.23-9.09 4.57.42 0 .77.01.98.01h20.44c7.05-2.82 39.83-8.81 48.28-10.92 8.46-2.11 7.05-2.47 11.98-.71 4.93 1.76 28.9 2.82 34.54 3.88 5.64 1.06 15.86 1.06 16.56 7.05.7 5.99-8.11 12.33-14.45 19.38s-20.09 31.01-31.02 45.82c-10.92 14.8-10.57 16.56-11.98 24.67-1.38 7.91-5.44 26.91-5.63 27.8 6.9 2.1 11.98 4.46 14.79 7.09 0 0 20.44-3.17 25.02 9.16 4.58 12.34 7.4 44.05 1.41 140.97s-8.81 154.36-11.98 194.54c-3.17 40.18-1.76 47.23-15.15 54.27-13.39 7.05-28.9 18.68-71.55 33.48-42.65 14.8-169.88 65.55-213.23 76.83-43.35 11.28-59.21 19.03-64.85 20.09-5.64 1.06-11.98-1.41-15.51-3.17-3.52-1.76-5.29-2.47-5.29-2.47s-5.29 1.41-8.46.71-23.97-9.87-34.19-11.98c-10.22-2.11-66.96-14.8-93.75-22.2-26.79-7.4-95.51-27.49-115.6-35.24-20.09-7.75-50.4-16.21-57.8-19.38-7.4-3.17-8.81-3.88-8.81-3.88s-7.75 5.64-13.04 5.64-5.64-2.82-10.22-4.23c-4.58-1.41-8.11-4.58-7.75-13.39.35-8.81-3.52-44.76-3.17-70.49Z" class="cls-2"/></g><g class="cls-8" style="clip-path:url(#clippath-3)"><path d="M742.79 686.02c16.27 0 29.46-13.19 29.46-29.46s-13.19-29.46-29.46-29.46-29.46 13.19-29.46 29.46 13.19 29.46 29.46 29.46" style="fill:#008196"/></g></g></g></svg>