<svg xmlns="http://www.w3.org/2000/svg" xmlns:xlink="http://www.w3.org/1999/xlink" xml:space="preserve" style="enable-background:new 0 0 1127 240" viewBox="0 0 1127 240"><defs><path id="a" d="M1.63.33h1124.75v230.33H1.63z"/></defs><clipPath id="b"><use xlink:href="#a" style="overflow:visible"/></clipPath><g style="clip-path:url(#b)"><defs><path id="c" d="M1.63.33h1124.75v230.33H1.63z"/></defs><clipPath id="d"><use xlink:href="#c" style="overflow:visible"/></clipPath><g style="opacity:.23;clip-path:url(#d)"><defs><path id="e" d="M-7.38-6.67h1142.75v238.33H-7.38z"/></defs><clipPath id="f"><use xlink:href="#e" style="overflow:visible"/></clipPath><path d="M1.62 223.33V.33h1124.75v223c-10.04 9.78-30.13 9.78-40.17 0-10.04-9.77-30.13-9.77-40.17 0-10.04 9.78-30.13 9.78-40.17 0-10.04-9.77-30.13-9.77-40.17 0-10.04 9.78-30.13 9.78-40.17 0-10.04-9.77-30.13-9.77-40.17 0-10.04 9.78-30.13 9.78-40.17 0-10.04-9.77-30.13-9.77-40.17 0-10.04 9.78-30.13 9.78-40.17 0-10.04-9.77-30.13-9.77-40.17 0-10.04 9.78-30.13 9.78-40.17 0-10.04-9.77-30.13-9.77-40.17 0-10.04 9.78-30.13 9.78-40.17 0-10.04-9.77-30.13-9.77-40.17 0-10.04 9.78-30.13 9.78-40.17 0-10.04-9.77-30.13-9.77-40.17 0-10.04 9.78-30.13 9.78-40.17 0-10.04-9.77-30.13-9.77-40.17 0-10.04 9.78-30.13 9.78-40.17 0-10.04-9.77-30.13-9.77-40.17 0-10.04 9.78-30.13 9.78-40.17 0-10.04-9.77-30.13-9.77-40.17 0-10.04 9.78-30.13 9.78-40.17 0-10.04-9.77-30.13-9.77-40.17 0-10.04 9.78-30.13 9.78-40.17 0-10.04-9.77-30.13-9.77-40.17 0-10.04 9.78-30.13 9.78-40.17 0-10.03-9.77-30.11-9.77-40.16 0" style="clip-path:url(#f);fill:#008196"/></g><path d="M953.93 144.65c7.97 0 13.01-3.8 13.01-9.21 0-5.1-3.11-7.72-11.82-9.15-6.35-1.06-8.4-2.43-8.4-5.1 0-2.3 3.11-4.54 7.28-4.54 3.92 0 6.72 1.49 8.09 5.6l4.23-2.49c-1.74-5.1-5.66-7.47-12.32-7.47-7.59 0-12.26 4.29-12.26 9.33 0 5.23 3.24 7.65 12.07 9.27 6.22 1.12 8.15 2.49 8.15 4.79 0 2.55-2.43 4.6-7.53 4.6-4.48 0-8.34-1.68-9.83-5.48l-4.04 2.8c2.36 4.81 7.64 7.05 13.37 7.05m-37.21-4.36c-3.55 0-5.66-1.37-5.66-3.98 0-2.93 2.8-4.73 8.28-5.72l6.97-1.31v4.29c-.01 4.11-4.61 6.72-9.59 6.72m16.92.13c-1.74 0-2.36-.75-2.36-2.24v-15.31c0-7.22-5.17-10.58-12.26-10.58-6.04 0-10.95 2.99-12.57 7.59l3.67 2.68c1.68-3.92 4.79-5.91 8.9-5.91 4.67 0 7.28 2.74 7.28 6.85v1.74l-8.28 1.37c-8.03 1.37-12.13 5.04-12.13 9.71 0 5.6 4.73 8.34 10.58 8.34 3.98 0 8.03-1.68 10.02-4.6.56 3.49 2.55 4.6 5.6 4.6 1.56 0 2.86-.31 3.73-.62l.31-3.92c-.74.17-1.68.3-2.49.3m-51.83-.13c-6.1 0-9.77-4.6-9.77-11.82 0-7.22 3.67-11.82 9.77-11.82 5.91 0 9.77 4.42 9.77 11.45v.75c0 7.02-3.86 11.44-9.77 11.44m9.77-41.69v19.17c-1.93-3.24-5.66-5.48-10.33-5.48-8.65 0-14.19 6.04-14.19 16.18s5.54 16.18 14.19 16.18c4.92 0 8.84-2.49 10.64-6.04l.31 5.41h4.36V98.6h-4.98zm-34.23 14.31h-4.98v31.11h4.98v-31.11zm-2.48-5.97c2.24 0 3.73-1.49 3.73-3.73s-1.49-3.73-3.73-3.73-3.73 1.49-3.73 3.73c-.01 2.24 1.49 3.73 3.73 3.73m-24.46 5.35c-9.4 0-15.06 6.1-15.06 16.18s5.66 16.18 15.06 16.18c6.6 0 11.08-3.42 13.19-9.15l-4.61-1.62c-.93 4.11-3.86 6.41-8.71 6.41-6.22 0-9.96-4.42-9.96-11.82s3.73-11.82 9.96-11.82c4.29 0 6.97 2.18 8.28 6.16l4.73-2.24c-2.3-5.11-6.47-8.28-12.88-8.28m-36.53 4.36c5.29 0 8.46 3.55 9.15 9.27h-18.85c.74-5.85 4.17-9.27 9.7-9.27m13.94 10.2c0-8.03-4.92-14.56-13.94-14.56-9.4 0-14.68 6.1-14.68 16.18s5.66 16.18 15.06 16.18c6.72 0 10.58-2.55 12.94-6.78l-4.17-2.18c-1.12 2.99-4.23 4.6-8.77 4.6-5.72 0-9.52-3.67-10.14-9.96h23.46c.12-.86.24-2.05.24-3.48m-41-28.25h-4.98v37.71c0 5.66 2.43 8.34 7.47 8.34 1.62 0 3.3-.31 4.6-.87l.81-4.79c-1.8.68-2.86.87-4.54.87-2.55 0-3.36-1-3.36-4.17V98.6zm-29.19 41.69c-5.91 0-9.77-4.42-9.77-11.45v-.75c0-7.03 3.86-11.45 9.77-11.45 6.1 0 9.77 4.61 9.77 11.82 0 7.23-3.67 11.83-9.77 11.83m.56-28c-4.67 0-8.4 2.24-10.33 5.48V98.6h-4.98v45.43h4.36l.31-5.41c1.8 3.55 5.72 6.04 10.64 6.04 8.65 0 14.19-6.04 14.19-16.18 0-10.15-5.54-16.19-14.19-16.19m-41.94 28c-3.55 0-5.66-1.37-5.66-3.98 0-2.93 2.8-4.73 8.28-5.72l6.97-1.31v4.29c-.01 4.11-4.61 6.72-9.59 6.72m16.93.13c-1.74 0-2.36-.75-2.36-2.24v-15.31c0-7.22-5.16-10.58-12.26-10.58-6.04 0-10.95 2.99-12.57 7.59l3.67 2.68c1.68-3.92 4.79-5.91 8.9-5.91 4.67 0 7.28 2.74 7.28 6.85v1.74l-8.28 1.37c-8.03 1.37-12.13 5.04-12.13 9.71 0 5.6 4.73 8.34 10.58 8.34 3.98 0 8.03-1.68 10.02-4.6.56 3.49 2.55 4.6 5.6 4.6 1.56 0 2.86-.31 3.73-.62l.31-3.92c-.75.17-1.68.3-2.49.3m-34.29-2.74c-1.43 1.43-3.05 2.3-5.29 2.3-2.74 0-4.67-1.49-4.67-4.54v-18.23h11.51v-4.29h-11.51v-8.84l-4.98 1.37v7.47h-6.22v4.29h6.22v19.1c.06 6.04 4.04 8.34 8.65 8.34 3.42 0 6.1-1.06 8.03-2.8l-1.74-4.17zm-39.51 6.97c7.96 0 13.01-3.8 13.01-9.21 0-5.1-3.11-7.72-11.82-9.15-6.35-1.06-8.4-2.43-8.4-5.1 0-2.3 3.11-4.54 7.28-4.54 3.92 0 6.72 1.49 8.09 5.6l4.23-2.49c-1.74-5.1-5.66-7.47-12.32-7.47-7.59 0-12.26 4.29-12.26 9.33 0 5.23 3.24 7.65 12.07 9.27 6.22 1.12 8.15 2.49 8.15 4.79 0 2.55-2.43 4.6-7.53 4.6-4.48 0-8.34-1.68-9.83-5.48l-4.04 2.8c2.35 4.81 7.64 7.05 13.37 7.05m-33.98-28c5.29 0 8.46 3.55 9.15 9.27h-18.86c.75-5.85 4.17-9.27 9.71-9.27m13.94 10.2c0-8.03-4.92-14.56-13.94-14.56-9.4 0-14.68 6.1-14.68 16.18s5.66 16.18 15.06 16.18c6.72 0 10.58-2.55 12.94-6.78l-4.17-2.18c-1.12 2.99-4.23 4.6-8.77 4.6-5.73 0-9.52-3.67-10.14-9.96h23.46c.12-.86.24-2.05.24-3.48m-50.09-10.2c5.29 0 8.46 3.55 9.15 9.27h-18.86c.75-5.85 4.17-9.27 9.71-9.27m13.94 10.2c0-8.03-4.92-14.56-13.94-14.56-9.4 0-14.69 6.1-14.69 16.18s5.66 16.18 15.06 16.18c6.72 0 10.58-2.55 12.94-6.78l-4.17-2.18c-1.12 2.99-4.23 4.6-8.77 4.6-5.72 0-9.52-3.67-10.14-9.96h23.46c.12-.86.25-2.05.25-3.48m-36.41-14.56c-4.85 0-8.21 1.93-9.96 5.73l-.68-5.1h-4.04v31.11h4.98v-16.8c0-6.97 4.48-10.27 8.21-10.27 1.62 0 2.99.31 3.92.81l.99-4.85c-.93-.5-2.36-.63-3.42-.63m-39.14 28c-5.91 0-9.77-4.42-9.77-11.45v-.75c0-7.03 3.86-11.45 9.77-11.45 6.1 0 9.77 4.61 9.77 11.82 0 7.23-3.67 11.83-9.77 11.83m.56-28c-4.92 0-8.84 2.49-10.64 6.04l-.31-5.41h-4.36v44.18h4.98v-17.92c1.93 3.24 5.66 5.48 10.33 5.48 8.65 0 14.19-6.04 14.19-16.18 0-10.15-5.54-16.19-14.19-16.19m-58.74 32.36c7.96 0 13.01-3.8 13.01-9.21 0-5.1-3.11-7.72-11.82-9.15-6.35-1.06-8.4-2.43-8.4-5.1 0-2.3 3.11-4.54 7.28-4.54 3.92 0 6.72 1.49 8.09 5.6l4.23-2.49c-1.74-5.1-5.66-7.47-12.32-7.47-7.59 0-12.26 4.29-12.26 9.33 0 5.23 3.24 7.65 12.07 9.27 6.22 1.12 8.15 2.49 8.15 4.79 0 2.55-2.43 4.6-7.53 4.6-4.48 0-8.34-1.68-9.83-5.48l-4.04 2.8c2.36 4.81 7.65 7.05 13.37 7.05m-33.97-28c5.29 0 8.46 3.55 9.15 9.27h-18.86c.75-5.85 4.17-9.27 9.71-9.27m13.94 10.2c0-8.03-4.92-14.56-13.94-14.56-9.4 0-14.68 6.1-14.68 16.18s5.66 16.18 15.06 16.18c6.72 0 10.58-2.55 12.94-6.78l-4.17-2.18c-1.12 2.99-4.23 4.6-8.77 4.6-5.72 0-9.52-3.67-10.14-9.96h23.46c.11-.86.24-2.05.24-3.48m-50.1-14.56c-4.29 0-8.28 1.56-10.45 5.48l-.31-4.85h-4.36v31.11h4.98v-16.55c0-7.97 5.1-10.83 9.64-10.83 4.29 0 7.65 2.3 7.65 9.21v18.17h4.98v-19.91c.01-8.03-5.47-11.83-12.13-11.83m-39.82 4.29c6.29 0 10.08 4.48 10.08 11.88s-3.79 11.89-10.08 11.89-10.08-4.48-10.08-11.89c0-7.4 3.79-11.88 10.08-11.88m0-4.29c-9.4 0-15.06 6.1-15.06 16.18s5.66 16.18 15.06 16.18 15.06-6.1 15.06-16.18-5.66-16.18-15.06-16.18m-24.7.62h-4.98v31.11h4.98v-31.11zm-2.49-5.97c2.24 0 3.73-1.49 3.73-3.73s-1.49-3.73-3.73-3.73-3.73 1.49-3.73 3.73c-.01 2.24 1.49 3.73 3.73 3.73m-24.46 5.35c-9.4 0-15.06 6.1-15.06 16.18s5.66 16.18 15.06 16.18c6.6 0 11.08-3.42 13.19-9.15l-4.61-1.62c-.93 4.11-3.86 6.41-8.71 6.41-6.22 0-9.96-4.42-9.96-11.82s3.73-11.82 9.96-11.82c4.29 0 6.97 2.18 8.28 6.16l4.73-2.24c-2.3-5.11-6.47-8.28-12.88-8.28m-24.7.62h-4.98v31.11h4.98v-31.11zm-2.49-5.97c2.24 0 3.73-1.49 3.73-3.73s-1.49-3.73-3.73-3.73-3.73 1.49-3.73 3.73 1.49 3.73 3.73 3.73m-24.7 37.71c7.97 0 13.01-3.8 13.01-9.21 0-5.1-3.11-7.72-11.82-9.15-6.35-1.06-8.4-2.43-8.4-5.1 0-2.3 3.11-4.54 7.28-4.54 3.92 0 6.72 1.49 8.09 5.6l4.23-2.49c-1.74-5.1-5.66-7.47-12.32-7.47-7.59 0-12.26 4.29-12.26 9.33 0 5.23 3.24 7.65 12.07 9.27 6.22 1.12 8.15 2.49 8.15 4.79 0 2.55-2.43 4.6-7.53 4.6-4.48 0-8.34-1.68-9.83-5.48l-4.04 2.8c2.35 4.81 7.64 7.05 13.37 7.05m-35.29-28.07c6.29 0 10.08 4.48 10.08 11.88s-3.8 11.89-10.08 11.89-10.08-4.48-10.08-11.89c0-7.4 3.8-11.88 10.08-11.88m0-4.29c-9.4 0-15.06 6.1-15.06 16.18s5.66 16.18 15.06 16.18 15.06-6.1 15.06-16.18-5.66-16.18-15.06-16.18m-35.84 11.01h-8.77v-15.68h8.77c6.47 0 9.33 2.74 9.33 7.84 0 5.11-2.86 7.84-9.33 7.84m.75-20.34h-14.5v41.07h4.98v-16.06h9.52c8.28 0 13.81-4.79 13.81-12.51 0-7.71-5.54-12.5-13.81-12.5" style="clip-path:url(#d);fill:#008196"/></g></svg>